<svg width="397" height="64" viewBox="0 0 397 64" fill="none" xmlns="http://www.w3.org/2000/svg">
<g filter="url(#filter0_d_5_24)">
<path d="M23.4648 46.2812V1H35.3828V55H24.6953L23.4648 46.2812ZM0.121094 36.4375V35.6992C0.121094 32.8164 0.4375 30.1914 1.07031 27.8242C1.70312 25.4336 2.64062 23.3828 3.88281 21.6719C5.125 19.9375 6.67188 18.6016 8.52344 17.6641C10.375 16.7266 12.5078 16.2578 14.9219 16.2578C17.0781 16.2578 18.9648 16.7617 20.582 17.7695C22.1992 18.7539 23.582 20.1367 24.7305 21.918C25.8789 23.6992 26.8164 25.7852 27.543 28.1758C28.2695 30.543 28.8203 33.0977 29.1953 35.8398V36.7188C28.8203 39.2969 28.2695 41.7344 27.543 44.0312C26.8164 46.3047 25.8789 48.3203 24.7305 50.0781C23.582 51.8359 22.1875 53.2188 20.5469 54.2266C18.9297 55.2109 17.0312 55.7031 14.8516 55.7031C12.4375 55.7031 10.3047 55.2227 8.45312 54.2617C6.625 53.3008 5.08984 51.9531 3.84766 50.2188C2.62891 48.4844 1.70312 46.4453 1.07031 44.1016C0.4375 41.7578 0.121094 39.2031 0.121094 36.4375ZM11.9688 35.6992V36.4375C11.9688 37.8672 12.0625 39.1914 12.25 40.4102C12.4375 41.6289 12.7539 42.707 13.1992 43.6445C13.668 44.5586 14.2773 45.2734 15.0273 45.7891C15.8008 46.3047 16.75 46.5625 17.875 46.5625C19.3984 46.5625 20.6523 46.1992 21.6367 45.4727C22.6445 44.7461 23.3828 43.7148 23.8516 42.3789C24.3438 41.043 24.5547 39.4727 24.4844 37.668V34.8906C24.5312 33.3438 24.4258 31.9844 24.168 30.8125C23.9102 29.6172 23.5 28.6211 22.9375 27.8242C22.3984 27.0273 21.707 26.4297 20.8633 26.0312C20.043 25.6094 19.0703 25.3984 17.9453 25.3984C16.8438 25.3984 15.9062 25.6562 15.1328 26.1719C14.3828 26.6875 13.7734 27.4141 13.3047 28.3516C12.8359 29.2656 12.4961 30.3555 12.2852 31.6211C12.0742 32.8633 11.9688 34.2227 11.9688 35.6992ZM40.6211 36.3672V35.6289C40.6211 32.8398 41.0195 30.2734 41.8164 27.9297C42.6133 25.5625 43.7852 23.5117 45.332 21.7773C46.8789 20.043 48.7891 18.6953 51.0625 17.7344C53.3359 16.75 55.9609 16.2578 58.9375 16.2578C61.9375 16.2578 64.5742 16.75 66.8477 17.7344C69.1445 18.6953 71.0664 20.043 72.6133 21.7773C74.1602 23.5117 75.332 25.5625 76.1289 27.9297C76.9258 30.2734 77.3242 32.8398 77.3242 35.6289V36.3672C77.3242 39.1328 76.9258 41.6992 76.1289 44.0664C75.332 46.4102 74.1602 48.4609 72.6133 50.2188C71.0664 51.9531 69.1562 53.3008 66.8828 54.2617C64.6094 55.2227 61.9844 55.7031 59.0078 55.7031C56.0312 55.7031 53.3945 55.2227 51.0977 54.2617C48.8008 53.3008 46.8789 51.9531 45.332 50.2188C43.7852 48.4609 42.6133 46.4102 41.8164 44.0664C41.0195 41.6992 40.6211 39.1328 40.6211 36.3672ZM52.4688 35.6289V36.3672C52.4688 37.7969 52.5742 39.1328 52.7852 40.375C52.9961 41.6172 53.3477 42.707 53.8398 43.6445C54.332 44.5586 55 45.2734 55.8438 45.7891C56.6875 46.3047 57.7422 46.5625 59.0078 46.5625C60.25 46.5625 61.2812 46.3047 62.1016 45.7891C62.9453 45.2734 63.6133 44.5586 64.1055 43.6445C64.5977 42.707 64.9492 41.6172 65.1602 40.375C65.3711 39.1328 65.4766 37.7969 65.4766 36.3672V35.6289C65.4766 34.2461 65.3711 32.9453 65.1602 31.7266C64.9492 30.4844 64.5977 29.3945 64.1055 28.457C63.6133 27.4961 62.9453 26.7461 62.1016 26.207C61.2578 25.668 60.2031 25.3984 58.9375 25.3984C57.6953 25.3984 56.6523 25.668 55.8086 26.207C54.9883 26.7461 54.332 27.4961 53.8398 28.457C53.3477 29.3945 52.9961 30.4844 52.7852 31.7266C52.5742 32.9453 52.4688 34.2461 52.4688 35.6289ZM101.02 55.7031C97.9258 55.7031 95.1602 55.2227 92.7227 54.2617C90.2852 53.2773 88.2227 51.9297 86.5352 50.2188C84.8711 48.5078 83.5938 46.5391 82.7031 44.3125C81.8359 42.0859 81.4023 39.7305 81.4023 37.2461V35.9102C81.4023 33.1211 81.7891 30.543 82.5625 28.1758C83.3359 25.7852 84.4844 23.6992 86.0078 21.918C87.5312 20.1367 89.4414 18.7539 91.7383 17.7695C94.0352 16.7617 96.707 16.2578 99.7539 16.2578C102.449 16.2578 104.863 16.6914 106.996 17.5586C109.129 18.4258 110.934 19.668 112.41 21.2852C113.91 22.9023 115.047 24.8594 115.82 27.1562C116.617 29.4531 117.016 32.0312 117.016 34.8906V39.707H85.9375V32.2891H105.449V31.375C105.473 30.1094 105.25 29.0312 104.781 28.1406C104.336 27.25 103.68 26.5703 102.812 26.1016C101.945 25.6328 100.891 25.3984 99.6484 25.3984C98.3594 25.3984 97.293 25.6797 96.4492 26.2422C95.6289 26.8047 94.9844 27.5781 94.5156 28.5625C94.0703 29.5234 93.7539 30.6367 93.5664 31.9023C93.3789 33.168 93.2852 34.5039 93.2852 35.9102V37.2461C93.2852 38.6523 93.4727 39.9297 93.8477 41.0781C94.2461 42.2266 94.8086 43.2109 95.5352 44.0312C96.2852 44.8281 97.1758 45.4492 98.207 45.8945C99.2617 46.3398 100.457 46.5625 101.793 46.5625C103.41 46.5625 105.004 46.2578 106.574 45.6484C108.145 45.0391 109.492 44.0312 110.617 42.625L115.996 49.0234C115.223 50.125 114.121 51.1914 112.691 52.2227C111.285 53.2539 109.598 54.0977 107.629 54.7539C105.66 55.3867 103.457 55.7031 101.02 55.7031ZM141.766 44.3125C141.766 43.6562 141.543 43.0938 141.098 42.625C140.676 42.1328 139.926 41.6875 138.848 41.2891C137.77 40.8672 136.258 40.4453 134.312 40.0234C132.461 39.625 130.715 39.0977 129.074 38.4414C127.457 37.7852 126.039 36.9883 124.82 36.0508C123.602 35.1133 122.641 34 121.938 32.7109C121.258 31.4219 120.918 29.9453 120.918 28.2812C120.918 26.6641 121.258 25.1406 121.938 23.7109C122.641 22.2578 123.66 20.9805 124.996 19.8789C126.355 18.7539 128.008 17.875 129.953 17.2422C131.898 16.5859 134.113 16.2578 136.598 16.2578C140.02 16.2578 142.973 16.7852 145.457 17.8398C147.941 18.8711 149.852 20.3242 151.188 22.1992C152.547 24.0508 153.227 26.1953 153.227 28.6328H141.379C141.379 27.6719 141.215 26.8516 140.887 26.1719C140.582 25.4922 140.078 24.9766 139.375 24.625C138.672 24.25 137.734 24.0625 136.562 24.0625C135.742 24.0625 134.992 24.2148 134.312 24.5195C133.656 24.8242 133.129 25.2461 132.73 25.7852C132.332 26.3242 132.133 26.957 132.133 27.6836C132.133 28.1992 132.25 28.668 132.484 29.0898C132.742 29.4883 133.129 29.8633 133.645 30.2148C134.16 30.543 134.816 30.8477 135.613 31.1289C136.41 31.3867 137.371 31.6211 138.496 31.832C141.051 32.3008 143.441 32.9688 145.668 33.8359C147.895 34.7031 149.699 35.9336 151.082 37.5273C152.488 39.1211 153.191 41.2656 153.191 43.9609C153.191 45.6484 152.805 47.207 152.031 48.6367C151.258 50.043 150.145 51.2852 148.691 52.3633C147.238 53.418 145.492 54.2383 143.453 54.8242C141.414 55.4102 139.117 55.7031 136.562 55.7031C132.93 55.7031 129.859 55.0586 127.352 53.7695C124.844 52.457 122.945 50.8164 121.656 48.8477C120.391 46.8555 119.758 44.8398 119.758 42.8008H130.797C130.844 43.9727 131.125 44.9336 131.641 45.6836C132.18 46.4336 132.895 46.9844 133.785 47.3359C134.676 47.6875 135.707 47.8633 136.879 47.8633C137.957 47.8633 138.848 47.7109 139.551 47.4062C140.277 47.1016 140.828 46.6914 141.203 46.1758C141.578 45.6367 141.766 45.0156 141.766 44.3125ZM189.191 16.9609V55H177.309V16.9609H189.191ZM176.605 7.15234C176.605 5.46484 177.215 4.08203 178.434 3.00391C179.652 1.92578 181.234 1.38672 183.18 1.38672C185.125 1.38672 186.707 1.92578 187.926 3.00391C189.145 4.08203 189.754 5.46484 189.754 7.15234C189.754 8.83984 189.145 10.2227 187.926 11.3008C186.707 12.3789 185.125 12.918 183.18 12.918C181.234 12.918 179.652 12.3789 178.434 11.3008C177.215 10.2227 176.605 8.83984 176.605 7.15234ZM216.543 16.9609V25.1875H193.621V16.9609H216.543ZM198.438 7.50391H210.285V42.5898C210.285 43.5977 210.402 44.3828 210.637 44.9453C210.871 45.4844 211.27 45.8711 211.832 46.1055C212.418 46.3164 213.191 46.4219 214.152 46.4219C214.832 46.4219 215.395 46.4102 215.84 46.3867C216.285 46.3398 216.707 46.2812 217.105 46.2109V54.6836C216.098 55.0117 215.043 55.2578 213.941 55.4219C212.84 55.6094 211.668 55.7031 210.426 55.7031C207.895 55.7031 205.727 55.3047 203.922 54.5078C202.141 53.7109 200.781 52.457 199.844 50.7461C198.906 49.0352 198.438 46.8086 198.438 44.0664V7.50391ZM253.703 55H241.785V13.8672C241.785 10.9141 242.383 8.42969 243.578 6.41406C244.773 4.39844 246.461 2.875 248.641 1.84375C250.82 0.789062 253.398 0.261719 256.375 0.261719C257.406 0.261719 258.379 0.332031 259.293 0.472656C260.207 0.613281 261.098 0.789062 261.965 1L262 9.71875C261.578 9.60156 261.145 9.51953 260.699 9.47266C260.254 9.42578 259.703 9.40234 259.047 9.40234C257.898 9.40234 256.926 9.57812 256.129 9.92969C255.332 10.2578 254.723 10.7617 254.301 11.4414C253.902 12.0977 253.703 12.9063 253.703 13.8672V55ZM261.086 16.9609V25.1875H236.301V16.9609H261.086ZM285.098 45.4375V29.7578C285.098 28.6797 284.945 27.7539 284.641 26.9805C284.336 26.207 283.855 25.6094 283.199 25.1875C282.543 24.7422 281.664 24.5195 280.562 24.5195C279.672 24.5195 278.91 24.6719 278.277 24.9766C277.645 25.2812 277.164 25.7383 276.836 26.3477C276.508 26.957 276.344 27.7305 276.344 28.668H264.496C264.496 26.9102 264.883 25.2812 265.656 23.7812C266.453 22.2578 267.578 20.9336 269.031 19.8086C270.508 18.6836 272.266 17.8164 274.305 17.207C276.367 16.5742 278.664 16.2578 281.195 16.2578C284.219 16.2578 286.914 16.7617 289.281 17.7695C291.672 18.7773 293.559 20.2891 294.941 22.3047C296.324 24.2969 297.016 26.8047 297.016 29.8281V45.4023C297.016 47.8867 297.156 49.7734 297.438 51.0625C297.719 52.3281 298.117 53.4414 298.633 54.4023V55H286.75C286.188 53.8281 285.766 52.3984 285.484 50.7109C285.227 49 285.098 47.2422 285.098 45.4375ZM286.539 31.7617L286.609 38.0898H281.371C280.27 38.0898 279.332 38.2422 278.559 38.5469C277.809 38.8516 277.199 39.2734 276.73 39.8125C276.285 40.3281 275.957 40.9141 275.746 41.5703C275.559 42.2266 275.465 42.918 275.465 43.6445C275.465 44.3477 275.629 44.9805 275.957 45.543C276.309 46.082 276.777 46.5039 277.363 46.8086C277.949 47.1133 278.605 47.2656 279.332 47.2656C280.645 47.2656 281.758 47.0195 282.672 46.5273C283.609 46.0117 284.324 45.3906 284.816 44.6641C285.309 43.9375 285.555 43.2578 285.555 42.625L288.156 47.4766C287.688 48.4141 287.148 49.3633 286.539 50.3242C285.953 51.2852 285.215 52.1758 284.324 52.9961C283.457 53.793 282.391 54.4492 281.125 54.9648C279.859 55.457 278.324 55.7031 276.52 55.7031C274.176 55.7031 272.02 55.2227 270.051 54.2617C268.105 53.3008 266.547 51.9648 265.375 50.2539C264.203 48.5195 263.617 46.5273 263.617 44.2773C263.617 42.3086 263.969 40.5508 264.672 39.0039C265.398 37.457 266.488 36.1445 267.941 35.0664C269.395 33.9883 271.246 33.168 273.496 32.6055C275.746 32.043 278.395 31.7617 281.441 31.7617H286.539ZM315.543 26.3828V55H303.695V16.9609H314.77L315.543 26.3828ZM326.793 16.6797L326.582 27.6836C326.113 27.6367 325.48 27.5781 324.684 27.5078C323.887 27.4375 323.219 27.4023 322.68 27.4023C321.297 27.4023 320.102 27.5664 319.094 27.8945C318.109 28.1992 317.289 28.668 316.633 29.3008C316 29.9102 315.531 30.6836 315.227 31.6211C314.945 32.5586 314.816 33.6484 314.84 34.8906L312.695 33.4844C312.695 30.9297 312.941 28.6094 313.434 26.5234C313.949 24.4141 314.676 22.5977 315.613 21.0742C316.551 19.5273 317.688 18.3437 319.023 17.5234C320.359 16.6797 321.859 16.2578 323.523 16.2578C324.109 16.2578 324.684 16.293 325.246 16.3633C325.832 16.4336 326.348 16.5391 326.793 16.6797ZM352.668 16.9609V25.1875H329.746V16.9609H352.668ZM334.562 7.50391H346.41V42.5898C346.41 43.5977 346.527 44.3828 346.762 44.9453C346.996 45.4844 347.395 45.8711 347.957 46.1055C348.543 46.3164 349.316 46.4219 350.277 46.4219C350.957 46.4219 351.52 46.4102 351.965 46.3867C352.41 46.3398 352.832 46.2812 353.23 46.2109V54.6836C352.223 55.0117 351.168 55.2578 350.066 55.4219C348.965 55.6094 347.793 55.7031 346.551 55.7031C344.02 55.7031 341.852 55.3047 340.047 54.5078C338.266 53.7109 336.906 52.457 335.969 50.7461C335.031 49.0352 334.562 46.8086 334.562 44.0664V7.50391ZM376.223 38.793H366.133C366.133 36.7305 366.273 34.9141 366.555 33.3438C366.859 31.75 367.375 30.3203 368.102 29.0547C368.828 27.7891 369.812 26.6172 371.055 25.5391C372.156 24.625 373.105 23.7461 373.902 22.9023C374.699 22.0586 375.309 21.2031 375.73 20.3359C376.152 19.4688 376.363 18.543 376.363 17.5586C376.363 16.3398 376.188 15.3438 375.836 14.5703C375.508 13.7969 375.004 13.2227 374.324 12.8477C373.668 12.4492 372.836 12.25 371.828 12.25C371.008 12.25 370.234 12.4492 369.508 12.8477C368.805 13.2461 368.23 13.8672 367.785 14.7109C367.34 15.5312 367.094 16.6211 367.047 17.9805H355.129C355.199 14.4883 355.973 11.6523 357.449 9.47266C358.949 7.26953 360.941 5.66406 363.426 4.65625C365.934 3.625 368.734 3.10938 371.828 3.10938C375.25 3.10938 378.191 3.63672 380.652 4.69141C383.113 5.74609 385 7.31641 386.312 9.40234C387.625 11.4648 388.281 14.0078 388.281 17.0312C388.281 19.0469 387.895 20.8047 387.121 22.3047C386.371 23.7812 385.352 25.1641 384.062 26.4531C382.797 27.7188 381.379 29.0781 379.809 30.5312C378.449 31.7266 377.523 32.9453 377.031 34.1875C376.539 35.4062 376.27 36.9414 376.223 38.793ZM364.691 49.4805C364.691 47.793 365.301 46.3867 366.52 45.2617C367.738 44.1133 369.32 43.5391 371.266 43.5391C373.211 43.5391 374.793 44.1133 376.012 45.2617C377.23 46.3867 377.84 47.793 377.84 49.4805C377.84 51.168 377.23 52.5859 376.012 53.7344C374.793 54.8594 373.211 55.4219 371.266 55.4219C369.32 55.4219 367.738 54.8594 366.52 53.7344C365.301 52.5859 364.691 51.168 364.691 49.4805Z" fill="#654236"/>
<path d="M23.4648 46.2812H15.4648C15.4648 46.6553 15.4911 47.0288 15.5433 47.3992L23.4648 46.2812ZM23.4648 1V-7C19.0466 -7 15.4648 -3.41828 15.4648 1H23.4648ZM35.3828 1H43.3828C43.3828 -3.41828 39.8011 -7 35.3828 -7V1ZM35.3828 55V63C39.8011 63 43.3828 59.4183 43.3828 55H35.3828ZM24.6953 55L16.7738 56.118C17.3309 60.0652 20.709 63 24.6953 63V55ZM1.07031 27.8242L8.79892 29.8903C8.80061 29.884 8.80228 29.8777 8.80395 29.8714L1.07031 27.8242ZM3.88281 21.6719L10.3565 26.372C10.3666 26.358 10.3767 26.3441 10.3867 26.3301L3.88281 21.6719ZM20.582 17.7695L16.3509 24.559C16.3747 24.5739 16.3985 24.5886 16.4225 24.6031L20.582 17.7695ZM27.543 28.1758L19.8887 30.5021C19.8908 30.5091 19.8929 30.5161 19.8951 30.5231L27.543 28.1758ZM29.1953 35.8398H37.1953C37.1953 35.4773 37.1707 35.1151 37.1215 34.7559L29.1953 35.8398ZM29.1953 36.7188L37.112 37.8703C37.1675 37.4889 37.1953 37.1041 37.1953 36.7188H29.1953ZM27.543 44.0312L35.1633 46.4666C35.1657 46.4591 35.1681 46.4516 35.1705 46.444L27.543 44.0312ZM20.5469 54.2266L24.7065 61.0602C24.7157 61.0545 24.725 61.0488 24.7342 61.0432L20.5469 54.2266ZM8.45312 54.2617L4.7309 61.343C4.74324 61.3495 4.75559 61.356 4.76796 61.3624L8.45312 54.2617ZM3.84766 50.2188L-2.69788 54.8183C-2.6841 54.8379 -2.67023 54.8575 -2.65627 54.877L3.84766 50.2188ZM13.1992 43.6445L5.973 47.077C6.00779 47.1502 6.04368 47.2229 6.08068 47.2951L13.1992 43.6445ZM15.0273 45.7891L10.4951 52.3814C10.5265 52.403 10.558 52.4243 10.5897 52.4455L15.0273 45.7891ZM21.6367 45.4727L16.9583 38.9832C16.9341 39.0007 16.9099 39.0183 16.8859 39.0361L21.6367 45.4727ZM23.8516 42.3789L16.3448 39.6133C16.3305 39.6521 16.3165 39.6911 16.3028 39.7302L23.8516 42.3789ZM24.4844 37.668H16.4844C16.4844 37.7718 16.4864 37.8757 16.4904 37.9794L24.4844 37.668ZM24.4844 34.8906L16.488 34.6483C16.4856 34.7291 16.4844 34.8098 16.4844 34.8906L24.4844 34.8906ZM24.168 30.8125L16.3478 32.4992C16.3501 32.5099 16.3525 32.5207 16.3548 32.5314L24.168 30.8125ZM22.9375 27.8242L16.3112 32.3067C16.341 32.3507 16.3711 32.3943 16.4018 32.4377L22.9375 27.8242ZM20.8633 26.0312L17.2045 33.1456C17.2847 33.1868 17.3657 33.2267 17.4472 33.2652L20.8633 26.0312ZM15.1328 26.1719L10.6952 19.5155C10.6635 19.5366 10.632 19.558 10.6006 19.5795L15.1328 26.1719ZM13.3047 28.3516L20.4232 32.0021C20.4356 31.9779 20.4479 31.9536 20.4601 31.9293L13.3047 28.3516ZM12.2852 31.6211L20.1722 32.9604C20.1736 32.9524 20.175 32.9443 20.1763 32.9363L12.2852 31.6211ZM31.4648 46.2812V1H15.4648V46.2812H31.4648ZM23.4648 9H35.3828V-7H23.4648V9ZM27.3828 1V55H43.3828V1H27.3828ZM35.3828 47H24.6953V63H35.3828V47ZM32.6168 53.882L31.3863 45.1633L15.5433 47.3992L16.7738 56.118L32.6168 53.882ZM8.12109 36.4375V35.6992H-7.87891V36.4375H8.12109ZM8.12109 35.6992C8.12109 33.3947 8.37466 31.4773 8.79892 29.8903L-6.6583 25.7582C-7.49966 28.9055 -7.87891 32.2381 -7.87891 35.6992H8.12109ZM8.80395 29.8714C9.22622 28.2761 9.78386 27.1608 10.3565 26.372L-2.59091 16.9718C-4.50261 19.6049 -5.81997 22.5911 -6.66333 25.7771L8.80395 29.8714ZM10.3867 26.3301C10.9008 25.6123 11.4674 25.1405 12.1372 24.8013L4.90964 10.5268C1.87639 12.0626 -0.650833 14.2627 -2.62111 17.0137L10.3867 26.3301ZM12.1372 24.8013C12.6991 24.5169 13.5585 24.2578 14.9219 24.2578V8.25781C11.4571 8.25781 8.05094 8.93627 4.90964 10.5268L12.1372 24.8013ZM14.9219 24.2578C15.7843 24.2578 16.1643 24.4428 16.3509 24.559L24.8132 10.98C21.7654 9.08067 18.372 8.25781 14.9219 8.25781V24.2578ZM16.4225 24.6031C16.8896 24.8875 17.4344 25.3652 18.0068 26.253L31.4541 17.583C29.7296 14.9082 27.5088 12.6203 24.7416 10.9359L16.4225 24.6031ZM18.0068 26.253C18.6892 27.3114 19.3403 28.6979 19.8887 30.5021L35.1973 25.8495C34.2925 22.8725 33.0686 20.087 31.4541 17.583L18.0068 26.253ZM19.8951 30.5231C20.4812 32.4325 20.9459 34.5604 21.2691 36.9238L37.1215 34.7559C36.6947 31.6349 36.0579 28.6534 35.1908 25.8284L19.8951 30.5231ZM21.1953 35.8398V36.7188H37.1953V35.8398H21.1953ZM21.2786 35.5672C20.9608 37.7521 20.5017 39.7653 19.9155 41.6185L35.1705 46.444C36.0374 43.7035 36.6798 40.8417 37.112 37.8703L21.2786 35.5672ZM19.9227 41.5959C19.3858 43.2758 18.7387 44.6226 18.0331 45.7025L31.4278 54.4537C33.0191 52.018 34.247 49.3336 35.1633 46.4666L19.9227 41.5959ZM18.0331 45.7025C17.4716 46.5621 16.905 47.0749 16.3595 47.41L24.7342 61.0432C27.47 59.3626 29.6925 57.1098 31.4278 54.4537L18.0331 45.7025ZM16.3873 47.393C16.2035 47.5049 15.7901 47.7031 14.8516 47.7031V63.7031C18.2724 63.7031 21.6559 62.917 24.7065 61.0602L16.3873 47.393ZM14.8516 47.7031C13.5178 47.7031 12.6843 47.4444 12.1383 47.161L4.76796 61.3624C7.92505 63.0009 11.3572 63.7031 14.8516 63.7031V47.7031ZM12.1754 47.1804C11.4875 46.8189 10.8927 46.316 10.3516 45.5605L-2.65627 54.877C-0.712988 57.5902 1.76248 59.7827 4.7309 61.343L12.1754 47.1804ZM10.3932 45.6192C9.78239 44.75 9.21829 43.5886 8.79375 42.0162L-6.65312 46.1869C-5.81204 49.302 -4.52458 52.2188 -2.69788 54.8183L10.3932 45.6192ZM8.79375 42.0162C8.36793 40.4391 8.12109 38.5948 8.12109 36.4375H-7.87891C-7.87891 39.8115 -7.49293 43.0765 -6.65312 46.1869L8.79375 42.0162ZM3.96875 35.6992V36.4375H19.9688V35.6992H3.96875ZM3.96875 36.4375C3.96875 38.2118 4.08475 39.9478 4.34303 41.6266L20.157 39.1937C20.0402 38.435 19.9688 37.5226 19.9688 36.4375H3.96875ZM4.34303 41.6266C4.62713 43.4733 5.13867 45.3205 5.973 47.077L20.4254 40.2121C20.3691 40.0936 20.2479 39.7845 20.157 39.1937L4.34303 41.6266ZM6.08068 47.2951C7.07552 49.235 8.5184 51.0224 10.4951 52.3814L19.5596 39.1967C19.7808 39.3488 19.9604 39.5173 20.0959 39.6763C20.2287 39.832 20.2955 39.9507 20.3178 39.994L6.08068 47.2951ZM10.5897 52.4455C12.9316 54.0067 15.5067 54.5625 17.875 54.5625V38.5625C17.9933 38.5625 18.67 38.6027 19.4649 39.1327L10.5897 52.4455ZM17.875 54.5625C20.6831 54.5625 23.7206 53.8777 26.3875 51.9092L16.8859 39.0361C17.2046 38.8008 17.5114 38.6699 17.7318 38.606C17.9371 38.5465 18.0058 38.5625 17.875 38.5625V54.5625ZM26.3151 51.9621C28.8296 50.1493 30.4683 47.684 31.4004 45.0276L16.3028 39.7302C16.2907 39.7647 16.3213 39.6652 16.4414 39.4974C16.567 39.322 16.7433 39.1383 16.9583 38.9832L26.3151 51.9621ZM31.3583 45.1445C32.2961 42.5992 32.5789 39.9385 32.4783 37.3565L16.4904 37.9794C16.5305 39.0068 16.3914 39.4867 16.3448 39.6133L31.3583 45.1445ZM32.4844 37.668V34.8906H16.4844V37.668H32.4844ZM32.4807 35.1329C32.5421 33.1066 32.4145 31.0635 31.9811 29.0936L16.3548 32.5314C16.4371 32.9052 16.5204 33.5809 16.488 34.6483L32.4807 35.1329ZM31.9881 29.1258C31.559 27.1363 30.7923 25.0794 29.4732 23.2108L16.4018 32.4377C16.3044 32.2998 16.2688 32.2132 16.2696 32.2149C16.2713 32.2191 16.306 32.3053 16.3478 32.4992L31.9881 29.1258ZM29.5638 23.3417C28.2469 21.3951 26.4621 19.828 24.2793 18.7973L17.4472 33.2652C17.227 33.1613 16.9976 33.0161 16.783 32.8306C16.5696 32.6461 16.4148 32.4598 16.3112 32.3067L29.5638 23.3417ZM24.5221 18.9169C22.3479 17.7988 20.0672 17.3984 17.9453 17.3984V33.3984C18.0734 33.3984 17.7381 33.42 17.2045 33.1456L24.5221 18.9169ZM17.9453 17.3984C15.5621 17.3984 13.0104 17.972 10.6952 19.5155L19.5704 32.8283C19.2142 33.0657 18.854 33.2184 18.5373 33.3054C18.2304 33.3898 18.0179 33.3984 17.9453 33.3984V17.3984ZM10.6006 19.5795C8.57608 20.9714 7.13063 22.8111 6.14927 24.7739L20.4601 31.9293C20.4162 32.017 20.1895 32.4036 19.665 32.7642L10.6006 19.5795ZM6.18615 24.701C5.26085 26.5054 4.70828 28.4202 4.394 30.3059L20.1763 32.9363C20.2839 32.2907 20.411 32.0259 20.4232 32.0021L6.18615 24.701ZM4.39806 30.2818C4.1005 32.0341 3.96875 33.8481 3.96875 35.6992H19.9688C19.9688 34.5972 20.0479 33.6925 20.1722 32.9604L4.39806 30.2818ZM41.8164 27.9297L49.3906 30.5049C49.3932 30.4973 49.3958 30.4897 49.3983 30.482L41.8164 27.9297ZM51.0625 17.7344L54.1771 25.1032C54.1985 25.0941 54.2199 25.085 54.2412 25.0757L51.0625 17.7344ZM66.8477 17.7344L63.6689 25.0757C63.6992 25.0889 63.7296 25.1018 63.76 25.1145L66.8477 17.7344ZM76.1289 27.9297L68.547 30.482C68.5495 30.4897 68.5521 30.4973 68.5547 30.5049L76.1289 27.9297ZM76.1289 44.0664L83.7031 46.6416C83.7057 46.634 83.7083 46.6264 83.7108 46.6187L76.1289 44.0664ZM72.6133 50.2188L78.5836 55.5437C78.5955 55.5304 78.6073 55.5171 78.619 55.5038L72.6133 50.2188ZM51.0977 54.2617L54.1853 46.8816L51.0977 54.2617ZM45.332 50.2188L39.3263 55.5038C39.3381 55.5171 39.3498 55.5304 39.3617 55.5437L45.332 50.2188ZM41.8164 44.0664L34.2345 46.6187C34.237 46.6264 34.2396 46.634 34.2422 46.6416L41.8164 44.0664ZM53.8398 43.6445L46.7567 47.3632C46.7697 47.388 46.7828 47.4127 46.7961 47.4373L53.8398 43.6445ZM62.1016 45.7891L57.93 38.9628C57.9013 38.9803 57.8727 38.9981 57.8442 39.016L62.1016 45.7891ZM64.1055 43.6445L71.1492 47.4373C71.1625 47.4127 71.1756 47.388 71.1887 47.3632L64.1055 43.6445ZM65.1602 31.7266L57.2731 33.0659C57.2745 33.0742 57.2759 33.0826 57.2774 33.0909L65.1602 31.7266ZM64.1055 28.457L56.9851 32.104C56.9974 32.128 57.0098 32.1519 57.0223 32.1757L64.1055 28.457ZM55.8086 26.207L51.5015 19.4655C51.4726 19.4839 51.4438 19.5026 51.4152 19.5214L55.8086 26.207ZM53.8398 28.457L60.923 32.1757C60.9355 32.1519 60.9479 32.128 60.9602 32.104L53.8398 28.457ZM52.7852 31.7266L60.668 33.0909C60.6694 33.0826 60.6708 33.0742 60.6722 33.0659L52.7852 31.7266ZM48.6211 36.3672V35.6289H32.6211V36.3672H48.6211ZM48.6211 35.6289C48.6211 33.6061 48.9089 31.9216 49.3906 30.5049L34.2422 25.3545C33.1301 28.6253 32.6211 32.0736 32.6211 35.6289H48.6211ZM49.3983 30.482C49.8767 29.0609 50.5268 27.9719 51.3024 27.1023L39.3617 16.4524C37.0435 19.0516 35.3498 22.0641 34.2345 25.3774L49.3983 30.482ZM51.3024 27.1023C52.012 26.3067 52.926 25.632 54.1771 25.1032L47.9479 10.3656C44.6521 11.7586 41.7458 13.7793 39.3617 16.4524L51.3024 27.1023ZM54.2412 25.0757C55.3304 24.6042 56.8384 24.2578 58.9375 24.2578V8.25781C55.0835 8.25781 51.3415 8.89585 47.8838 10.393L54.2412 25.0757ZM58.9375 24.2578C61.0696 24.2578 62.5871 24.6073 63.6689 25.0757L70.0264 10.393C66.5614 8.89269 62.8054 8.25781 58.9375 8.25781V24.2578ZM63.76 25.1145C65.0348 25.6478 65.9473 26.3224 66.6429 27.1023L78.5836 16.4524C76.1855 13.7636 73.2543 11.7428 69.9353 10.3542L63.76 25.1145ZM66.6429 27.1023C67.4185 27.9719 68.0686 29.0609 68.547 30.482L83.7108 25.3774C82.5955 22.0641 80.9018 19.0516 78.5836 16.4524L66.6429 27.1023ZM68.5547 30.5049C69.0364 31.9216 69.3242 33.6061 69.3242 35.6289H85.3242C85.3242 32.0736 84.8152 28.6253 83.7031 25.3545L68.5547 30.5049ZM69.3242 35.6289V36.3672H85.3242V35.6289H69.3242ZM69.3242 36.3672C69.3242 38.3574 69.039 40.0526 68.547 41.5141L83.7108 46.6187C84.8126 43.3458 85.3242 39.9082 85.3242 36.3672H69.3242ZM68.5547 41.4912C68.0774 42.8951 67.4189 44.0117 66.6076 44.9337L78.619 55.5038C80.9014 52.9101 82.5867 49.9252 83.7031 46.6416L68.5547 41.4912ZM66.6429 44.8938C65.9333 45.6894 65.0193 46.3641 63.7682 46.8929L69.9975 61.6305C73.2932 60.2374 76.1995 58.2168 78.5836 55.5437L66.6429 44.8938ZM63.7682 46.8929C62.6611 47.3609 61.1299 47.7031 59.0078 47.7031V63.7031C62.8388 63.7031 66.5577 63.0844 69.9975 61.6305L63.7682 46.8929ZM59.0078 47.7031C56.8882 47.7031 55.3328 47.3616 54.1853 46.8816L48.01 61.6419C51.4563 63.0837 55.1743 63.7031 59.0078 63.7031V47.7031ZM54.1853 46.8816C52.9105 46.3483 51.998 45.6737 51.3024 44.8938L39.3617 55.5437C41.7598 58.2325 44.691 60.2533 48.01 61.6419L54.1853 46.8816ZM51.3377 44.9337C50.5264 44.0117 49.8679 42.8951 49.3906 41.4912L34.2422 46.6416C35.3586 49.9252 37.0439 52.9101 39.3263 55.5038L51.3377 44.9337ZM49.3983 41.5141C48.9063 40.0526 48.6211 38.3574 48.6211 36.3672H32.6211C32.6211 39.9082 33.1327 43.3458 34.2345 46.6187L49.3983 41.5141ZM44.4688 35.6289V36.3672H60.4688V35.6289H44.4688ZM44.4688 36.3672C44.4688 38.187 44.6028 39.9753 44.8981 41.7143L60.6722 39.0357C60.5457 38.2903 60.4688 37.4068 60.4688 36.3672H44.4688ZM44.8981 41.7143C45.224 43.6339 45.8067 45.5538 46.7567 47.3632L60.923 39.9259C60.8886 39.8603 60.7682 39.6005 60.6722 39.0357L44.8981 41.7143ZM46.7961 47.4373C47.9252 49.5343 49.5579 51.3233 51.6721 52.6153L60.0154 38.9628C60.2038 39.078 60.3902 39.2277 60.5552 39.4043C60.7186 39.5791 60.8235 39.7401 60.8836 39.8517L46.7961 47.4373ZM51.6721 52.6153C54.0784 54.0858 56.6762 54.5625 59.0078 54.5625V38.5625C58.8082 38.5625 59.2966 38.5236 60.0154 38.9628L51.6721 52.6153ZM59.0078 54.5625C61.3368 54.5625 63.9494 54.0767 66.3589 52.5622L57.8442 39.016C58.6131 38.5327 59.1632 38.5625 59.0078 38.5625V54.5625ZM66.2732 52.6153C68.3874 51.3233 70.0201 49.5343 71.1492 47.4373L57.0617 39.8517C57.1218 39.7401 57.2267 39.5791 57.3901 39.4043C57.5551 39.2277 57.7415 39.078 57.93 38.9628L66.2732 52.6153ZM71.1887 47.3632C72.1386 45.5538 72.7213 43.6339 73.0472 41.7143L57.2731 39.0357C57.1771 39.6005 57.0567 39.8603 57.0223 39.9259L71.1887 47.3632ZM73.0472 41.7143C73.3426 39.9753 73.4766 38.187 73.4766 36.3672H57.4766C57.4766 37.4068 57.3996 38.2903 57.2731 39.0357L73.0472 41.7143ZM73.4766 36.3672V35.6289H57.4766V36.3672H73.4766ZM73.4766 35.6289C73.4766 33.8415 73.3404 32.0806 73.043 30.3622L57.2774 33.0909C57.4018 33.81 57.4766 34.6507 57.4766 35.6289H73.4766ZM73.0472 30.3872C72.7213 28.4677 72.1386 26.5478 71.1887 24.7384L57.0223 32.1757C57.0567 32.2413 57.1771 32.501 57.2731 33.0659L73.0472 30.3872ZM71.2258 24.81C70.1392 22.6886 68.5412 20.8279 66.4087 19.4655L57.7944 32.9486C57.5962 32.822 57.4136 32.6656 57.2612 32.4945C57.1112 32.3261 57.0255 32.1828 56.9851 32.104L71.2258 24.81ZM66.4087 19.4655C63.9784 17.9128 61.329 17.3984 58.9375 17.3984V33.3984C59.0773 33.3984 58.5373 33.4232 57.7944 32.9486L66.4087 19.4655ZM58.9375 17.3984C56.5362 17.3984 53.9094 17.9271 51.5015 19.4655L60.1157 32.9486C59.3953 33.4089 58.8544 33.3984 58.9375 33.3984V17.3984ZM51.4152 19.5214C49.3254 20.8947 47.7779 22.7436 46.7195 24.81L60.9602 32.104C60.9322 32.1588 60.8595 32.2845 60.7218 32.4419C60.5814 32.6023 60.405 32.7593 60.202 32.8927L51.4152 19.5214ZM46.7567 24.7384C45.8067 26.5478 45.224 28.4677 44.8981 30.3872L60.6722 33.0659C60.7682 32.501 60.8886 32.2413 60.923 32.1757L46.7567 24.7384ZM44.9024 30.3622C44.6049 32.0806 44.4688 33.8415 44.4688 35.6289H60.4688C60.4688 34.6507 60.5435 33.81 60.668 33.0909L44.9024 30.3622ZM92.7227 54.2617L89.727 61.6797C89.7475 61.6879 89.768 61.6961 89.7886 61.7042L92.7227 54.2617ZM86.5352 50.2188L80.8003 55.7965C80.8133 55.8099 80.8263 55.8232 80.8394 55.8365L86.5352 50.2188ZM82.7031 44.3125L75.2486 47.2159C75.2574 47.2385 75.2663 47.2611 75.2753 47.2836L82.7031 44.3125ZM82.5625 28.1758L90.1669 30.6604C90.1693 30.653 90.1717 30.6457 90.1741 30.6383L82.5625 28.1758ZM91.7383 17.7695L94.8896 25.1227C94.9107 25.1137 94.9317 25.1046 94.9527 25.0954L91.7383 17.7695ZM112.41 21.2852L106.502 26.6793C106.516 26.6948 106.531 26.7102 106.545 26.7255L112.41 21.2852ZM115.82 27.1562L108.239 29.7093C108.246 29.7324 108.254 29.7554 108.262 29.7784L115.82 27.1562ZM117.016 39.707V47.707C121.434 47.707 125.016 44.1253 125.016 39.707H117.016ZM85.9375 39.707H77.9375C77.9375 44.1253 81.5192 47.707 85.9375 47.707V39.707ZM85.9375 32.2891V24.2891C81.5192 24.2891 77.9375 27.8708 77.9375 32.2891H85.9375ZM105.449 32.2891V40.2891C109.867 40.2891 113.449 36.7073 113.449 32.2891H105.449ZM105.449 31.375L97.4506 31.2269C97.4497 31.2762 97.4492 31.3256 97.4492 31.375L105.449 31.375ZM104.781 28.1406L97.6258 31.7183C97.6507 31.768 97.676 31.8174 97.7019 31.8666L104.781 28.1406ZM96.4492 26.2422L92.0116 19.5858C91.9826 19.6051 91.9537 19.6246 91.925 19.6444L96.4492 26.2422ZM94.5156 28.5625L87.2927 25.123C87.2807 25.1482 87.2689 25.1735 87.2571 25.1988L94.5156 28.5625ZM93.8477 41.0781L86.2428 43.5613C86.258 43.6078 86.2736 43.6541 86.2896 43.7003L93.8477 41.0781ZM95.5352 44.0312L89.5465 49.3355C89.5999 49.3959 89.6543 49.4554 89.7096 49.5142L95.5352 44.0312ZM98.207 45.8945L95.0355 53.239C95.0554 53.2476 95.0753 53.2561 95.0953 53.2645L98.207 45.8945ZM110.617 42.625L116.741 37.4771C115.199 35.6429 112.916 34.5965 110.52 34.6256C108.124 34.6547 105.867 35.7563 104.37 37.6274L110.617 42.625ZM115.996 49.0234L122.543 53.6205C124.628 50.6518 124.454 46.6521 122.12 43.8755L115.996 49.0234ZM112.691 52.2227L108.011 45.7344C107.994 45.7467 107.977 45.759 107.96 45.7714L112.691 52.2227ZM107.629 54.7539L110.077 62.3701C110.104 62.3614 110.132 62.3524 110.159 62.3434L107.629 54.7539ZM101.02 47.7031C98.752 47.7031 97.0074 47.3517 95.6567 46.8192L89.7886 61.7042C93.3129 63.0937 97.0995 63.7031 101.02 63.7031V47.7031ZM95.7184 46.8438C94.1985 46.23 93.0814 45.4633 92.2309 44.601L80.8394 55.8365C83.3639 58.396 86.3718 60.3247 89.727 61.6797L95.7184 46.8438ZM92.27 44.641C91.3388 43.6836 90.635 42.6015 90.1309 41.3414L75.2753 47.2836C76.5525 50.4766 78.4034 53.3321 80.8003 55.7965L92.27 44.641ZM90.1577 41.4091C89.6652 40.1447 89.4023 38.7773 89.4023 37.2461H73.4023C73.4023 40.6836 74.0066 44.0271 75.2486 47.2159L90.1577 41.4091ZM89.4023 37.2461V35.9102H73.4023V37.2461H89.4023ZM89.4023 35.9102C89.4023 33.8649 89.6849 32.1355 90.1669 30.6604L74.9581 25.6912C73.8932 28.9504 73.4023 32.3773 73.4023 35.9102H89.4023ZM90.1741 30.6383C90.6462 29.1791 91.2986 28.0402 92.0875 27.1177L79.9281 16.7182C77.6702 19.3583 76.0257 22.3912 74.9509 25.7132L90.1741 30.6383ZM92.0875 27.1177C92.7607 26.3306 93.6448 25.6562 94.8896 25.1227L88.5869 10.4164C85.238 11.8516 82.3018 13.9428 79.9281 16.7182L92.0875 27.1177ZM94.9527 25.0954C96.0432 24.6169 97.5813 24.2578 99.7539 24.2578V8.25781C95.8328 8.25781 92.0272 8.90656 88.5239 10.4437L94.9527 25.0954ZM99.7539 24.2578C101.59 24.2578 102.956 24.5518 103.983 24.9694L110.009 10.1477C106.771 8.83102 103.309 8.25781 99.7539 8.25781V24.2578ZM103.983 24.9694C105.071 25.4118 105.87 25.9865 106.502 26.6793L118.318 15.891C115.997 13.3494 113.187 11.4398 110.009 10.1477L103.983 24.9694ZM106.545 26.7255C107.202 27.4336 107.791 28.3785 108.239 29.7093L123.402 24.6032C122.303 21.3402 120.619 18.3711 118.276 15.8448L106.545 26.7255ZM108.262 29.7784C108.72 31.0983 109.016 32.7703 109.016 34.8906H125.016C125.016 31.2922 124.514 27.808 123.378 24.5341L108.262 29.7784ZM109.016 34.8906V39.707H125.016V34.8906H109.016ZM117.016 31.707H85.9375V47.707H117.016V31.707ZM93.9375 39.707V32.2891H77.9375V39.707H93.9375ZM85.9375 40.2891H105.449V24.2891H85.9375V40.2891ZM113.449 32.2891V31.375H97.4492V32.2891H113.449ZM113.448 31.5231C113.49 29.2505 113.099 26.768 111.861 24.4147L97.7019 31.8666C97.4008 31.2945 97.4554 30.9682 97.4506 31.2269L113.448 31.5231ZM111.937 24.5629C110.764 22.218 108.945 20.3227 106.617 19.0639L99.0084 33.1392C98.751 33.0001 98.4666 32.7959 98.1999 32.5196C97.9337 32.2439 97.747 31.9606 97.6258 31.7183L111.937 24.5629ZM106.617 19.0639C104.315 17.82 101.88 17.3984 99.6484 17.3984V33.3984C99.901 33.3984 99.5752 33.4456 99.0084 33.1392L106.617 19.0639ZM99.6484 17.3984C97.2067 17.3984 94.4845 17.9372 92.0116 19.5858L100.887 32.8986C100.101 33.4222 99.5121 33.3984 99.6484 33.3984V17.3984ZM91.925 19.6444C89.8329 21.0789 88.3073 22.9924 87.2927 25.123L101.739 32.002C101.709 32.0637 101.636 32.1983 101.496 32.3656C101.354 32.5361 101.176 32.7008 100.973 32.84L91.925 19.6444ZM87.2571 25.1988C86.4309 26.9818 85.9301 28.8582 85.6528 30.73L101.48 33.0747C101.578 32.4153 101.71 32.0651 101.774 31.9262L87.2571 25.1988ZM85.6528 30.73C85.4025 32.4197 85.2852 34.1496 85.2852 35.9102H101.285C101.285 34.8582 101.355 33.9163 101.48 33.0747L85.6528 30.73ZM85.2852 35.9102V37.2461H101.285V35.9102H85.2852ZM85.2852 37.2461C85.2852 39.3605 85.5671 41.492 86.2428 43.5613L101.452 38.5949C101.378 38.3673 101.285 37.9441 101.285 37.2461H85.2852ZM86.2896 43.7003C86.9933 45.7286 88.0544 47.651 89.5465 49.3355L101.524 38.727C101.537 38.7418 101.533 38.7406 101.514 38.7086C101.495 38.6751 101.454 38.5966 101.406 38.4559L86.2896 43.7003ZM89.7096 49.5142C91.228 51.1275 93.029 52.3726 95.0355 53.239L101.379 38.55C101.358 38.541 101.346 38.5348 101.341 38.5323C101.337 38.5299 101.338 38.53 101.342 38.5328C101.346 38.5356 101.351 38.5393 101.355 38.5433C101.36 38.5473 101.362 38.5494 101.361 38.5483L89.7096 49.5142ZM95.0953 53.2645C97.285 54.1891 99.5643 54.5625 101.793 54.5625V38.5625C101.35 38.5625 101.238 38.4906 101.319 38.5245L95.0953 53.2645ZM101.793 54.5625C104.441 54.5625 107.014 54.059 109.468 53.1066L103.68 38.1903C102.994 38.4567 102.379 38.5625 101.793 38.5625V54.5625ZM109.468 53.1066C112.445 51.9516 114.921 50.0513 116.864 47.6226L104.37 37.6274C104.063 38.0112 103.844 38.1266 103.68 38.1903L109.468 53.1066ZM104.494 47.7729L109.872 54.1713L122.12 43.8755L116.741 37.4771L104.494 47.7729ZM109.449 44.4264C109.319 44.6114 108.929 45.0726 108.011 45.7344L117.371 58.7109C119.313 57.3102 121.126 55.6386 122.543 53.6205L109.449 44.4264ZM107.96 45.7714C107.338 46.2282 106.425 46.7225 105.099 47.1644L110.159 62.3434C112.77 61.4728 115.233 60.2796 117.422 58.6739L107.96 45.7714ZM105.181 47.1377C104.13 47.4755 102.771 47.7031 101.02 47.7031V63.7031C104.144 63.7031 107.19 63.298 110.077 62.3701L105.181 47.1377ZM141.098 42.625L135.024 47.8313C135.112 47.9349 135.204 48.0361 135.298 48.135L141.098 42.625ZM138.848 41.2891L135.932 48.739C135.98 48.7575 136.027 48.7755 136.074 48.793L138.848 41.2891ZM134.312 40.0234L136.008 32.2052L135.995 32.2025L134.312 40.0234ZM129.074 38.4414L126.066 45.8543C126.078 45.8593 126.091 45.8643 126.103 45.8692L129.074 38.4414ZM121.938 32.7109L114.861 36.4422C114.879 36.4755 114.896 36.5087 114.914 36.5418L121.938 32.7109ZM121.938 23.7109L114.736 20.2265C114.728 20.243 114.72 20.2595 114.712 20.2761L121.938 23.7109ZM124.996 19.8789L130.086 26.0512C130.089 26.0482 130.093 26.0451 130.097 26.0421L124.996 19.8789ZM129.953 17.2422L132.428 24.8498C132.455 24.8408 132.483 24.8317 132.51 24.8225L129.953 17.2422ZM145.457 17.8398L142.331 25.2037C142.351 25.2121 142.37 25.2204 142.39 25.2286L145.457 17.8398ZM151.188 22.1992L144.672 26.8414C144.694 26.8723 144.716 26.9031 144.739 26.9337L151.188 22.1992ZM153.227 28.6328V36.6328C157.645 36.6328 161.227 33.0511 161.227 28.6328H153.227ZM141.379 28.6328H133.379C133.379 33.0511 136.961 36.6328 141.379 36.6328V28.6328ZM140.887 26.1719L133.587 29.4443C133.618 29.5133 133.649 29.5818 133.682 29.6499L140.887 26.1719ZM139.375 24.625L135.61 31.6838C135.672 31.7168 135.735 31.749 135.797 31.7804L139.375 24.625ZM134.312 24.5195L131.04 17.2195C131.008 17.2339 130.976 17.2486 130.944 17.2635L134.312 24.5195ZM132.484 29.0898L125.491 32.975C125.578 33.1317 125.67 33.2854 125.768 33.4359L132.484 29.0898ZM133.645 30.2148L129.138 36.8247C129.208 36.8723 129.278 36.9188 129.35 36.9641L133.645 30.2148ZM135.613 31.1289L132.951 38.6728C133.017 38.6963 133.084 38.7188 133.151 38.7405L135.613 31.1289ZM138.496 31.832L137.022 39.695C137.032 39.6969 137.042 39.6988 137.052 39.7007L138.496 31.832ZM151.082 37.5273L145.039 42.7702C145.054 42.7869 145.069 42.8037 145.083 42.8203L151.082 37.5273ZM152.031 48.6367L159.041 52.4921C159.05 52.4758 159.059 52.4596 159.068 52.4433L152.031 48.6367ZM148.691 52.3633L153.391 58.8377C153.413 58.8213 153.436 58.8047 153.458 58.7881L148.691 52.3633ZM127.352 53.7695L123.642 60.8575C123.659 60.8666 123.677 60.8756 123.694 60.8846L127.352 53.7695ZM121.656 48.8477L114.904 53.1375C114.923 53.1685 114.943 53.1993 114.963 53.2299L121.656 48.8477ZM119.758 42.8008V34.8008C115.34 34.8008 111.758 38.3825 111.758 42.8008H119.758ZM130.797 42.8008L138.79 42.481C138.619 38.1906 135.091 34.8008 130.797 34.8008V42.8008ZM131.641 45.6836L125.048 50.2158C125.08 50.2618 125.112 50.3074 125.145 50.3527L131.641 45.6836ZM139.551 47.4062L136.457 40.0287C136.428 40.0409 136.399 40.0533 136.37 40.0658L139.551 47.4062ZM141.203 46.1758L147.673 50.8812C147.706 50.8359 147.738 50.7903 147.77 50.7443L141.203 46.1758ZM149.766 44.3125C149.766 41.6398 148.779 39.0952 146.898 37.115L135.298 48.135C134.864 47.6785 134.451 47.0777 134.16 46.3428C133.87 45.6101 133.766 44.9065 133.766 44.3125H149.766ZM147.172 37.4187C145.417 35.3719 143.127 34.3416 141.621 33.7851L136.074 48.793C136.293 48.8736 136.284 48.8894 136.134 48.8007C136.001 48.7217 135.538 48.4318 135.024 47.8313L147.172 37.4187ZM141.763 33.8391C140.106 33.1908 138.119 32.663 136.008 32.2052L132.617 47.8417C134.397 48.2277 135.433 48.5436 135.932 48.739L141.763 33.8391ZM135.995 32.2025C134.552 31.8919 133.24 31.4914 132.045 31.0136L126.103 45.8692C128.19 46.7039 130.369 47.3581 132.63 47.8444L135.995 32.2025ZM132.082 31.0285C131.045 30.6077 130.274 30.1527 129.698 29.7098L119.943 42.3918C121.804 43.8239 123.869 44.9626 126.066 45.8543L132.082 31.0285ZM129.698 29.7098C129.319 29.418 129.106 29.1464 128.961 28.8801L114.914 36.5418C116.175 38.8536 117.884 40.8085 119.943 42.3918L129.698 29.7098ZM129.014 28.9797C129.009 28.9708 128.99 28.9335 128.969 28.8424C128.947 28.7469 128.918 28.5678 128.918 28.2812H112.918C112.918 31.0595 113.494 33.8489 114.861 36.4422L129.014 28.9797ZM128.918 28.2812C128.918 27.8259 129.004 27.4786 129.163 27.1458L114.712 20.2761C113.511 22.8026 112.918 25.5022 112.918 28.2812H128.918ZM129.139 27.1954C129.304 26.8539 129.573 26.4736 130.086 26.0512L119.907 13.7066C117.747 15.4873 115.977 17.6617 114.736 20.2265L129.139 27.1954ZM130.097 26.0421C130.566 25.6534 131.29 25.2198 132.428 24.8498L127.478 9.63459C124.725 10.5302 122.145 11.8544 119.896 13.7158L130.097 26.0421ZM132.51 24.8225C133.48 24.4955 134.806 24.2578 136.598 24.2578V8.25781C133.42 8.25781 130.317 8.67636 127.396 9.6619L132.51 24.8225ZM136.598 24.2578C139.222 24.2578 141.062 24.665 142.331 25.2037L148.583 10.4759C144.884 8.90533 140.817 8.25781 136.598 8.25781V24.2578ZM142.39 25.2286C143.727 25.7837 144.343 26.3801 144.672 26.8414L157.703 17.557C155.36 14.2683 152.156 11.9585 148.524 10.4511L142.39 25.2286ZM144.739 26.9337C145.027 27.3258 145.227 27.7876 145.227 28.6328H161.227C161.227 24.603 160.067 20.7758 157.636 17.4648L144.739 26.9337ZM153.227 20.6328H141.379V36.6328H153.227V20.6328ZM149.379 28.6328C149.379 26.7862 149.066 24.7128 148.091 22.6939L133.682 29.6499C133.364 28.9904 133.379 28.5575 133.379 28.6328H149.379ZM148.187 22.8994C147.083 20.4365 145.209 18.5976 142.953 17.4696L135.797 31.7804C135.424 31.5938 134.983 31.3011 134.559 30.8669C134.13 30.4284 133.807 29.9355 133.587 29.4443L148.187 22.8994ZM143.14 17.5662C140.86 16.3506 138.475 16.0625 136.562 16.0625V32.0625C136.735 32.0625 136.724 32.0774 136.576 32.0478C136.426 32.0178 136.07 31.9289 135.61 31.6838L143.14 17.5662ZM136.562 16.0625C134.729 16.0625 132.849 16.4085 131.04 17.2195L137.585 31.8196C137.135 32.0212 136.755 32.0625 136.562 32.0625V16.0625ZM130.944 17.2635C129.172 18.0861 127.554 19.3294 126.297 21.03L139.164 30.5403C138.704 31.1628 138.141 31.5623 137.681 31.7756L130.944 17.2635ZM126.297 21.03C124.794 23.0631 124.133 25.3971 124.133 27.6836H140.133C140.133 28.0582 140.08 28.5352 139.913 29.0663C139.744 29.604 139.486 30.1048 139.164 30.5403L126.297 21.03ZM124.133 27.6836C124.133 29.4628 124.551 31.2835 125.491 32.975L139.478 25.2047C139.949 26.0525 140.133 26.9357 140.133 27.6836H124.133ZM125.768 33.4359C126.755 34.9621 128.006 36.0527 129.138 36.8247L138.151 23.605C138.252 23.6738 138.729 24.0145 139.201 24.7438L125.768 33.4359ZM129.35 36.9641C130.53 37.7154 131.782 38.2603 132.951 38.6728L138.276 23.585C138.079 23.5154 137.955 23.4626 137.892 23.4334C137.827 23.4033 137.852 23.4099 137.94 23.4656L129.35 36.9641ZM133.151 38.7405C134.364 39.133 135.674 39.4424 137.022 39.695L139.97 23.9691C139.068 23.7998 138.456 23.6404 138.076 23.5174L133.151 38.7405ZM137.052 39.7007C139.151 40.0858 141.049 40.6224 142.765 41.2905L148.571 26.3814C145.834 25.3151 142.95 24.5158 139.94 23.9634L137.052 39.7007ZM142.765 41.2905C143.943 41.7494 144.615 42.2811 145.039 42.7702L157.125 32.2845C154.783 29.5861 151.846 27.6569 148.571 26.3814L142.765 41.2905ZM145.083 42.8203C145.024 42.7526 145.028 42.7191 145.062 42.8235C145.105 42.9525 145.191 43.3004 145.191 43.9609H161.191C161.191 39.8557 160.094 35.649 157.081 32.2344L145.083 42.8203ZM145.191 43.9609C145.191 44.3719 145.111 44.615 144.995 44.8302L159.068 52.4433C160.498 49.7991 161.191 46.925 161.191 43.9609H145.191ZM145.022 44.7814C144.869 45.0586 144.572 45.4581 143.925 45.9385L153.458 58.7881C155.717 57.1122 157.647 55.0273 159.041 52.4921L145.022 44.7814ZM143.992 45.8889C143.415 46.3079 142.547 46.7608 141.244 47.1354L145.663 62.5131C148.437 61.7158 151.062 60.5281 153.391 58.8377L143.992 45.8889ZM141.244 47.1354C140.052 47.4779 138.517 47.7031 136.562 47.7031V63.7031C139.718 63.7031 142.776 63.3424 145.663 62.5131L141.244 47.1354ZM136.562 47.7031C133.846 47.7031 132.107 47.2187 131.009 46.6545L123.694 60.8846C127.612 62.8985 132.013 63.7031 136.562 63.7031V47.7031ZM131.061 46.6816C129.518 45.8738 128.753 45.082 128.349 44.4654L114.963 53.2299C117.138 56.5508 120.17 59.0403 123.642 60.8575L131.061 46.6816ZM128.409 44.5578C127.827 43.6418 127.758 43.0933 127.758 42.8008H111.758C111.758 46.5864 112.954 50.0691 114.904 53.1375L128.409 44.5578ZM119.758 50.8008H130.797V34.8008H119.758V50.8008ZM122.803 43.1205C122.893 45.3714 123.463 47.91 125.048 50.2158L138.233 41.1514C138.787 41.9572 138.794 42.5739 138.79 42.481L122.803 43.1205ZM125.145 50.3527C126.613 52.3963 128.585 53.8839 130.848 54.7772L136.722 39.8947C136.932 39.9772 137.192 40.113 137.464 40.3221C137.737 40.5324 137.963 40.773 138.137 41.0145L125.145 50.3527ZM130.848 54.7772C132.857 55.5704 134.92 55.8633 136.879 55.8633V39.8633C136.691 39.8633 136.593 39.849 136.571 39.8452C136.55 39.8417 136.609 39.8498 136.722 39.8947L130.848 54.7772ZM136.879 55.8633C138.637 55.8633 140.704 55.6254 142.732 54.7467L136.37 40.0658C136.699 39.9234 136.931 39.8765 137.007 39.8636C137.082 39.8506 137.05 39.8633 136.879 39.8633V55.8633ZM142.645 54.7838C144.403 54.0464 146.256 52.8292 147.673 50.8812L134.733 41.4704C135.4 40.5537 136.152 40.1567 136.457 40.0287L142.645 54.7838ZM147.77 50.7443C149.145 48.7677 149.766 46.5272 149.766 44.3125H133.766C133.766 43.504 134.011 42.5057 134.636 41.6073L147.77 50.7443ZM189.191 16.9609H197.191C197.191 12.5427 193.61 8.96094 189.191 8.96094V16.9609ZM189.191 55V63C193.61 63 197.191 59.4183 197.191 55H189.191ZM177.309 55H169.309C169.309 59.4183 172.89 63 177.309 63V55ZM177.309 16.9609V8.96094C172.89 8.96094 169.309 12.5427 169.309 16.9609H177.309ZM181.191 16.9609V55H197.191V16.9609H181.191ZM189.191 47H177.309V63H189.191V47ZM185.309 55V16.9609H169.309V55H185.309ZM177.309 24.9609H189.191V8.96094H177.309V24.9609ZM184.605 7.15234C184.605 7.28941 184.576 7.63794 184.383 8.07568C184.187 8.52074 183.922 8.82933 183.734 8.99588L173.133 -2.98807C170.127 -0.328499 168.605 3.26985 168.605 7.15234H184.605ZM183.734 8.99588C183.64 9.07886 183.533 9.15717 183.416 9.22442C183.3 9.29141 183.196 9.33583 183.114 9.36349C182.951 9.41915 182.944 9.38672 183.18 9.38672V-6.61328C179.683 -6.61328 176.09 -5.60348 173.133 -2.98807L183.734 8.99588ZM183.18 9.38672C183.415 9.38672 183.408 9.41915 183.245 9.36349C183.164 9.33583 183.059 9.29141 182.943 9.22442C182.827 9.15717 182.719 9.07886 182.625 8.99588L193.226 -2.98807C190.27 -5.60348 186.676 -6.61328 183.18 -6.61328V9.38672ZM182.625 8.99588C182.437 8.82933 182.172 8.52074 181.976 8.07568C181.783 7.63794 181.754 7.28941 181.754 7.15234H197.754C197.754 3.26985 196.233 -0.328499 193.226 -2.98807L182.625 8.99588ZM181.754 7.15234C181.754 7.01528 181.783 6.66675 181.976 6.22901C182.172 5.78395 182.437 5.47536 182.625 5.30881L193.226 17.2928C196.233 14.6332 197.754 11.0348 197.754 7.15234H181.754ZM182.625 5.30881C182.719 5.22582 182.827 5.14752 182.943 5.08026C183.059 5.01328 183.164 4.96886 183.245 4.9412C183.408 4.88553 183.415 4.91797 183.18 4.91797V20.918C186.676 20.918 190.27 19.9082 193.226 17.2928L182.625 5.30881ZM183.18 4.91797C182.944 4.91797 182.951 4.88553 183.114 4.9412C183.196 4.96886 183.3 5.01328 183.416 5.08026C183.533 5.14752 183.64 5.22582 183.734 5.30881L173.133 17.2928C176.09 19.9082 179.683 20.918 183.18 20.918V4.91797ZM183.734 5.30881C183.922 5.47536 184.187 5.78395 184.383 6.22901C184.576 6.66675 184.605 7.01528 184.605 7.15234H168.605C168.605 11.0348 170.127 14.6332 173.133 17.2928L183.734 5.30881ZM216.543 16.9609H224.543C224.543 12.5427 220.961 8.96094 216.543 8.96094V16.9609ZM216.543 25.1875V33.1875C220.961 33.1875 224.543 29.6058 224.543 25.1875H216.543ZM193.621 25.1875H185.621C185.621 29.6058 189.203 33.1875 193.621 33.1875V25.1875ZM193.621 16.9609V8.96094C189.203 8.96094 185.621 12.5427 185.621 16.9609H193.621ZM198.438 7.50391V-0.496094C194.019 -0.496094 190.438 3.08563 190.438 7.50391H198.438ZM210.285 7.50391H218.285C218.285 3.08563 214.703 -0.496094 210.285 -0.496094V7.50391ZM210.637 44.9453L203.252 48.0222C203.268 48.06 203.284 48.0976 203.3 48.1351L210.637 44.9453ZM211.832 46.1055L208.755 53.4901C208.876 53.5406 208.999 53.5881 209.122 53.6326L211.832 46.1055ZM215.84 46.3867L216.26 54.3757C216.4 54.3683 216.539 54.3574 216.677 54.3428L215.84 46.3867ZM217.105 46.2109H225.105C225.105 43.846 224.059 41.6023 222.247 40.0822C220.436 38.5622 218.044 37.9217 215.715 38.3327L217.105 46.2109ZM217.105 54.6836L219.582 62.2906C222.876 61.2181 225.105 58.1476 225.105 54.6836H217.105ZM213.941 55.4219L212.763 47.5092C212.708 47.5173 212.654 47.526 212.599 47.5353L213.941 55.4219ZM203.922 54.5078L200.655 61.8104C200.667 61.8156 200.679 61.8209 200.69 61.8261L203.922 54.5078ZM208.543 16.9609V25.1875H224.543V16.9609H208.543ZM216.543 17.1875H193.621V33.1875H216.543V17.1875ZM201.621 25.1875V16.9609H185.621V25.1875H201.621ZM193.621 24.9609H216.543V8.96094H193.621V24.9609ZM198.438 15.5039H210.285V-0.496094H198.438V15.5039ZM202.285 7.50391V42.5898H218.285V7.50391H202.285ZM202.285 42.5898C202.285 44.0526 202.431 46.0514 203.252 48.0222L218.021 41.8684C218.22 42.346 218.274 42.6795 218.285 42.7536C218.298 42.8397 218.285 42.7983 218.285 42.5898H202.285ZM203.3 48.1351C204.392 50.6462 206.362 52.4928 208.755 53.4901L214.909 38.7209C215.465 38.9524 216.094 39.3273 216.683 39.899C217.276 40.4747 217.699 41.1247 217.973 41.7555L203.3 48.1351ZM209.122 53.6326C210.916 54.2784 212.714 54.4219 214.152 54.4219V38.4219C213.954 38.4219 213.89 38.4104 213.932 38.4161C213.957 38.4195 214.022 38.4293 214.12 38.4522C214.218 38.475 214.362 38.5138 214.542 38.5784L209.122 53.6326ZM214.152 54.4219C214.908 54.4219 215.623 54.4092 216.26 54.3757L215.419 38.3978C215.166 38.4111 214.756 38.4219 214.152 38.4219V54.4219ZM216.677 54.3428C217.289 54.2784 217.896 54.1951 218.496 54.0892L215.715 38.3327C215.518 38.3674 215.282 38.4013 215.002 38.4307L216.677 54.3428ZM209.105 46.2109V54.6836H225.105V46.2109H209.105ZM214.629 47.0766C214.065 47.2601 213.446 47.4074 212.763 47.5092L215.12 63.3346C216.64 63.1082 218.13 62.7633 219.582 62.2906L214.629 47.0766ZM212.599 47.5353C211.987 47.6395 211.267 47.7031 210.426 47.7031V63.7031C212.069 63.7031 213.693 63.5792 215.284 63.3084L212.599 47.5353ZM210.426 47.7031C208.705 47.7031 207.695 47.4289 207.153 47.1895L200.69 61.8261C203.758 63.1805 207.084 63.7031 210.426 63.7031V47.7031ZM207.189 47.2053C207.046 47.1412 206.999 47.0967 206.991 47.0894C206.983 47.082 206.935 47.0388 206.86 46.9018L192.828 54.5904C194.604 57.8326 197.281 60.3008 200.655 61.8104L207.189 47.2053ZM206.86 46.9018C206.777 46.7506 206.438 45.9797 206.438 44.0664H190.438C190.438 47.6375 191.036 51.3197 192.828 54.5904L206.86 46.9018ZM206.438 44.0664V7.50391H190.438V44.0664H206.438ZM253.703 55V63C258.121 63 261.703 59.4183 261.703 55H253.703ZM241.785 55H233.785C233.785 59.4183 237.367 63 241.785 63V55ZM248.641 1.84375L252.062 9.07524C252.083 9.06526 252.104 9.05519 252.125 9.04502L248.641 1.84375ZM261.965 1L269.965 0.967742C269.95 -2.71014 267.429 -5.90406 263.856 -6.77334L261.965 1ZM262 9.71875L259.859 17.4269C262.273 18.0975 264.862 17.5983 266.854 16.078C268.846 14.5578 270.01 12.1921 270 9.68649L262 9.71875ZM256.129 9.92969L259.175 17.3271C259.236 17.3018 259.297 17.2758 259.358 17.249L256.129 9.92969ZM254.301 11.4414L247.504 7.2225C247.49 7.24479 247.476 7.26715 247.462 7.28958L254.301 11.4414ZM261.086 16.9609H269.086C269.086 12.5427 265.504 8.96094 261.086 8.96094V16.9609ZM261.086 25.1875V33.1875C265.504 33.1875 269.086 29.6058 269.086 25.1875H261.086ZM236.301 25.1875H228.301C228.301 29.6058 231.883 33.1875 236.301 33.1875V25.1875ZM236.301 16.9609V8.96094C231.883 8.96094 228.301 12.5427 228.301 16.9609H236.301ZM253.703 47H241.785V63H253.703V47ZM249.785 55V13.8672H233.785V55H249.785ZM249.785 13.8672C249.785 11.981 250.164 10.9923 250.459 10.4947L236.697 2.33345C234.602 5.86709 233.785 9.84714 233.785 13.8672H249.785ZM250.459 10.4947C250.816 9.89231 251.279 9.44548 252.062 9.07524L245.219 -5.38774C241.642 -3.69548 238.731 -1.09543 236.697 2.33345L250.459 10.4947ZM252.125 9.04502C252.998 8.62256 254.334 8.26172 256.375 8.26172V-7.73828C252.463 -7.73828 248.642 -7.04443 245.156 -5.35752L252.125 9.04502ZM256.375 8.26172C257.045 8.26172 257.608 8.30752 258.077 8.37963L260.509 -7.43432C259.15 -7.64345 257.768 -7.73828 256.375 -7.73828V8.26172ZM258.077 8.37963C258.772 8.48665 259.437 8.6185 260.074 8.77334L263.856 -6.77334C262.758 -7.04038 261.642 -7.26009 260.509 -7.43432L258.077 8.37963ZM253.965 1.03226L254 9.75101L270 9.68649L269.965 0.967742L253.965 1.03226ZM264.141 2.01061C263.283 1.77217 262.413 1.60882 261.537 1.51661L259.862 17.4287C259.87 17.4296 259.873 17.4302 259.871 17.4299C259.87 17.4296 259.865 17.4287 259.859 17.4269L264.141 2.01061ZM261.537 1.51661C260.718 1.43042 259.867 1.40234 259.047 1.40234V17.4023C259.539 17.4023 259.79 17.4211 259.862 17.4287L261.537 1.51661ZM259.047 1.40234C257.124 1.40234 254.983 1.69131 252.9 2.61035L259.358 17.249C259.107 17.3599 258.932 17.397 258.879 17.4067C258.828 17.4159 258.875 17.4023 259.047 17.4023V1.40234ZM253.083 2.53226C250.86 3.44765 248.881 5.00355 247.504 7.2225L261.098 15.6603C260.857 16.0482 260.544 16.4119 260.172 16.7189C259.806 17.022 259.452 17.213 259.175 17.3271L253.083 2.53226ZM247.462 7.28958C246.135 9.47679 245.703 11.8076 245.703 13.8672H261.703C261.703 14.0049 261.67 14.7185 261.139 15.5932L247.462 7.28958ZM245.703 13.8672V55H261.703V13.8672H245.703ZM253.086 16.9609V25.1875H269.086V16.9609H253.086ZM261.086 17.1875H236.301V33.1875H261.086V17.1875ZM244.301 25.1875V16.9609H228.301V25.1875H244.301ZM236.301 24.9609H261.086V8.96094H236.301V24.9609ZM283.199 25.1875L278.707 31.8073C278.762 31.8445 278.817 31.8811 278.873 31.9169L283.199 25.1875ZM276.344 28.668V36.668C280.762 36.668 284.344 33.0862 284.344 28.668H276.344ZM264.496 28.668H256.496C256.496 33.0862 260.078 36.668 264.496 36.668V28.668ZM265.656 23.7812L258.567 20.0733C258.56 20.0871 258.553 20.101 258.546 20.1149L265.656 23.7812ZM269.031 19.8086L264.183 13.4451C264.167 13.4576 264.15 13.4702 264.134 13.4828L269.031 19.8086ZM274.305 17.207L276.595 24.8721C276.614 24.8665 276.633 24.8608 276.651 24.8551L274.305 17.207ZM289.281 17.7695L286.147 25.1302C286.156 25.1339 286.165 25.1376 286.174 25.1413L289.281 17.7695ZM294.941 22.3047L288.345 26.8304C288.353 26.8424 288.361 26.8544 288.369 26.8664L294.941 22.3047ZM297.438 51.0625L289.621 52.7678C289.624 52.7779 289.626 52.7879 289.628 52.7979L297.438 51.0625ZM298.633 54.4023H306.633C306.633 53.0824 306.306 51.7829 305.682 50.6198L298.633 54.4023ZM298.633 55V63C303.051 63 306.633 59.4183 306.633 55H298.633ZM286.75 55L279.538 58.4618C280.869 61.2356 283.673 63 286.75 63V55ZM285.484 50.7109L277.574 51.903C277.58 51.9441 277.586 51.9851 277.593 52.0261L285.484 50.7109ZM286.539 31.7617L294.539 31.6728C294.49 27.2895 290.923 23.7617 286.539 23.7617V31.7617ZM286.609 38.0898V46.0898C288.747 46.0898 290.795 45.2347 292.298 43.7152C293.8 42.1956 294.633 40.138 294.609 38.001L286.609 38.0898ZM278.559 38.5469L275.626 31.1036C275.6 31.114 275.574 31.1245 275.548 31.1351L278.559 38.5469ZM276.73 39.8125L270.694 34.5631C270.688 34.5699 270.682 34.5767 270.676 34.5835L276.73 39.8125ZM275.746 41.5703L268.13 39.1222C268.103 39.2053 268.078 39.2887 268.054 39.3725L275.746 41.5703ZM275.957 45.543L269.047 49.5739C269.114 49.6887 269.184 49.8018 269.256 49.9131L275.957 45.543ZM282.672 46.5273L286.465 53.5711C286.486 53.5599 286.506 53.5485 286.527 53.5371L282.672 46.5273ZM285.555 42.625L292.605 38.8444C290.872 35.6122 287.163 33.9725 283.606 34.8661C280.049 35.7596 277.555 38.9574 277.555 42.625H285.555ZM288.156 47.4766L295.312 51.0543C296.474 48.73 296.435 45.9861 295.207 43.696L288.156 47.4766ZM286.539 50.3242L279.783 46.0399C279.758 46.0795 279.733 46.1193 279.709 46.1594L286.539 50.3242ZM284.324 52.9961L289.737 58.8867L289.744 58.8805L284.324 52.9961ZM281.125 54.9648L284.025 62.4209C284.064 62.4054 284.104 62.3897 284.143 62.3736L281.125 54.9648ZM270.051 54.2617L266.508 61.4343C266.519 61.4399 266.53 61.4455 266.542 61.451L270.051 54.2617ZM265.375 50.2539L258.746 54.7328C258.756 54.7467 258.765 54.7607 258.775 54.7746L265.375 50.2539ZM264.672 39.0039L257.431 35.6028C257.417 35.6329 257.403 35.6632 257.389 35.6935L264.672 39.0039ZM293.098 45.4375V29.7578H277.098V45.4375H293.098ZM293.098 29.7578C293.098 27.9596 292.848 25.9874 292.084 24.0483L277.197 29.9127C277.118 29.7102 277.094 29.5796 277.09 29.5539C277.086 29.5296 277.098 29.5911 277.098 29.7578H293.098ZM292.084 24.0483C291.207 21.8219 289.688 19.8485 287.525 18.4581L278.873 31.9169C278.489 31.6703 278.126 31.3489 277.817 30.9646C277.511 30.5843 277.316 30.2135 277.197 29.9127L292.084 24.0483ZM287.691 18.5677C285.286 16.9354 282.663 16.5195 280.562 16.5195V32.5195C280.665 32.5195 279.8 32.549 278.707 31.8073L287.691 18.5677ZM280.562 16.5195C278.783 16.5195 276.772 16.8222 274.807 17.7685L281.748 32.1846C281.4 32.3523 281.101 32.4367 280.892 32.4784C280.688 32.5193 280.569 32.5195 280.562 32.5195V16.5195ZM274.807 17.7685C272.676 18.7943 270.934 20.435 269.792 22.5549L283.88 30.1405C283.661 30.5475 283.355 30.9649 282.956 31.3443C282.558 31.7229 282.137 31.9971 281.748 32.1846L274.807 17.7685ZM269.792 22.5549C268.653 24.6697 268.344 26.8553 268.344 28.668H284.344C284.344 28.6056 284.362 29.2444 283.88 30.1405L269.792 22.5549ZM276.344 20.668H264.496V36.668H276.344V20.668ZM272.496 28.668C272.496 28.1309 272.602 27.7662 272.767 27.4476L258.546 20.1149C257.163 22.7963 256.496 25.6894 256.496 28.668H272.496ZM272.745 27.4892C272.972 27.0551 273.322 26.604 273.929 26.1344L264.134 13.4828C261.834 15.2631 259.934 17.4605 258.567 20.0733L272.745 27.4892ZM273.88 26.172C274.485 25.7105 275.347 25.2452 276.595 24.8721L272.014 9.542C269.185 10.3876 266.53 11.6567 264.183 13.4451L273.88 26.172ZM276.651 24.8551C277.835 24.4919 279.325 24.2578 281.195 24.2578V8.25781C278.003 8.25781 274.899 8.6565 271.958 9.55892L276.651 24.8551ZM281.195 24.2578C283.328 24.2578 284.929 24.6115 286.147 25.1302L292.415 10.4089C288.899 8.91194 285.11 8.25781 281.195 8.25781V24.2578ZM286.174 25.1413C287.243 25.5923 287.882 26.1568 288.345 26.8304L301.538 17.779C299.235 14.4214 296.1 11.9624 292.389 10.3978L286.174 25.1413ZM288.369 26.8664C288.616 27.2209 289.016 28.0301 289.016 29.8281H305.016C305.016 25.5792 304.033 21.3728 301.513 17.743L288.369 26.8664ZM289.016 29.8281V45.4023H305.016V29.8281H289.016ZM289.016 45.4023C289.016 48.0518 289.154 50.6256 289.621 52.7678L305.254 49.3572C305.159 48.9213 305.016 47.7216 305.016 45.4023H289.016ZM289.628 52.7979C290.039 54.6471 290.664 56.4716 291.584 58.1849L305.682 50.6198C305.57 50.4112 305.399 50.0091 305.247 49.3271L289.628 52.7979ZM290.633 54.4023V55H306.633V54.4023H290.633ZM298.633 47H286.75V63H298.633V47ZM293.962 51.5382C293.81 51.2218 293.569 50.5594 293.376 49.3957L277.593 52.0261C277.962 54.2374 278.565 56.4345 279.538 58.4618L293.962 51.5382ZM293.395 49.5189C293.199 48.219 293.098 46.8602 293.098 45.4375H277.098C277.098 47.6241 277.254 49.781 277.574 51.903L293.395 49.5189ZM278.54 31.8506L278.61 38.1787L294.609 38.001L294.539 31.6728L278.54 31.8506ZM286.609 30.0898H281.371V46.0898H286.609V30.0898ZM281.371 30.0898C279.574 30.0898 277.583 30.3328 275.626 31.1036L281.491 45.9901C281.277 46.0745 281.142 46.0977 281.125 46.1005C281.109 46.1032 281.184 46.0898 281.371 46.0898V30.0898ZM275.548 31.1351C273.789 31.8494 272.091 32.9559 270.694 34.5631L282.767 45.0619C282.307 45.591 281.828 45.8538 281.57 45.9586L275.548 31.1351ZM270.676 34.5835C269.52 35.9217 268.665 37.456 268.13 39.1222L283.362 44.0184C283.249 44.3722 283.05 44.7346 282.785 45.0415L270.676 34.5835ZM268.054 39.3725C267.649 40.7882 267.465 42.2225 267.465 43.6445H283.465C283.465 43.626 283.466 43.6311 283.463 43.656C283.459 43.6812 283.452 43.7199 283.438 43.7681L268.054 39.3725ZM267.465 43.6445C267.465 45.6474 267.948 47.6909 269.047 49.5739L282.867 41.512C283.309 42.27 283.465 43.0479 283.465 43.6445H267.465ZM269.256 49.9131C270.38 51.6363 271.899 52.9839 273.672 53.9063L281.054 39.7109C281.656 40.0239 282.237 40.5277 282.658 41.1728L269.256 49.9131ZM273.672 53.9063C275.509 54.8614 277.452 55.2656 279.332 55.2656V39.2656C279.759 39.2656 280.389 39.3651 281.054 39.7109L273.672 53.9063ZM279.332 55.2656C281.626 55.2656 284.117 54.8354 286.465 53.5711L278.879 39.4836C279.399 39.2037 279.663 39.2656 279.332 39.2656V55.2656ZM286.527 53.5371C288.334 52.5432 290.098 51.1309 291.44 49.1508L278.193 40.1773C278.55 39.6504 278.885 39.4802 278.817 39.5176L286.527 53.5371ZM291.44 49.1508C292.493 47.5958 293.555 45.3666 293.555 42.625H277.555C277.555 41.149 278.124 40.2792 278.193 40.1773L291.44 49.1508ZM278.504 46.4056L281.106 51.2572L295.207 43.696L292.605 38.8444L278.504 46.4056ZM281.001 43.8989C280.663 44.5747 280.26 45.2884 279.783 46.0399L293.295 54.6086C294.037 53.4382 294.712 52.2534 295.312 51.0543L281.001 43.8989ZM279.709 46.1594C279.539 46.438 279.288 46.758 278.904 47.1117L289.744 58.8805C291.141 57.5935 292.367 56.1324 293.369 54.4891L279.709 46.1594ZM278.911 47.1055C278.848 47.1634 278.629 47.3432 278.107 47.5561L284.143 62.3736C286.152 61.5552 288.066 60.4226 289.737 58.8867L278.911 47.1055ZM278.225 47.5088C278.133 47.5446 277.64 47.7031 276.52 47.7031V63.7031C279.008 63.7031 281.585 63.3694 284.025 62.4209L278.225 47.5088ZM276.52 47.7031C275.305 47.7031 274.36 47.4631 273.56 47.0724L266.542 61.451C269.679 62.9822 273.046 63.7031 276.52 63.7031V47.7031ZM273.594 47.0891C272.819 46.7063 272.336 46.2596 271.975 45.7332L258.775 54.7746C260.758 57.6701 263.392 59.8952 266.508 61.4343L273.594 47.0891ZM272.004 45.775C271.793 45.4637 271.617 45.0566 271.617 44.2773H255.617C255.617 47.9981 256.613 51.5753 258.746 54.7328L272.004 45.775ZM271.617 44.2773C271.617 43.2705 271.793 42.6692 271.955 42.3143L257.389 35.6935C256.144 38.4323 255.617 41.3467 255.617 44.2773H271.617ZM271.913 42.405C272.044 42.1255 272.253 41.8292 272.708 41.4912L263.175 28.6416C260.724 30.4599 258.753 32.7885 257.431 35.6028L271.913 42.405ZM272.708 41.4912C273.115 41.1896 273.932 40.7428 275.436 40.3666L271.556 24.8443C268.56 25.5932 265.674 26.7869 263.175 28.6416L272.708 41.4912ZM275.436 40.3666C276.89 40.0033 278.857 39.7617 281.441 39.7617V23.7617C277.932 23.7617 274.603 24.0826 271.556 24.8443L275.436 40.3666ZM281.441 39.7617H286.539V23.7617H281.441V39.7617ZM315.543 26.3828H323.543C323.543 26.1644 323.534 25.946 323.516 25.7283L315.543 26.3828ZM315.543 55V63C319.961 63 323.543 59.4183 323.543 55H315.543ZM303.695 55H295.695C295.695 59.4183 299.277 63 303.695 63V55ZM303.695 16.9609V8.96094C299.277 8.96094 295.695 12.5427 295.695 16.9609H303.695ZM314.77 16.9609L322.743 16.3064C322.402 12.1559 318.934 8.96094 314.77 8.96094V16.9609ZM326.793 16.6797L334.791 16.833C334.859 13.2868 332.584 10.1191 329.202 9.05103L326.793 16.6797ZM326.582 27.6836L325.786 35.6439C328.008 35.8661 330.223 35.1492 331.893 33.6664C333.563 32.1836 334.538 30.0701 334.581 27.8369L326.582 27.6836ZM319.094 27.8945L321.459 35.5368C321.496 35.5253 321.533 35.5135 321.57 35.5015L319.094 27.8945ZM316.633 29.3008L322.182 35.0633L322.186 35.0595L316.633 29.3008ZM315.227 31.6211L307.618 29.1484C307.6 29.2062 307.581 29.2641 307.564 29.3223L315.227 31.6211ZM314.84 34.8906L310.453 41.5806C312.934 43.2073 316.111 43.3277 318.708 41.8934C321.304 40.4592 322.894 37.7057 322.838 34.7397L314.84 34.8906ZM312.695 33.4844H304.695C304.695 36.1808 306.054 38.6957 308.308 40.1743L312.695 33.4844ZM313.434 26.5234L305.662 24.6238C305.657 24.6446 305.652 24.6654 305.647 24.6862L313.434 26.5234ZM315.613 21.0742L322.427 25.267C322.436 25.2516 322.445 25.2361 322.455 25.2206L315.613 21.0742ZM319.023 17.5234L323.21 24.3408C323.238 24.3232 323.267 24.3053 323.295 24.2873L319.023 17.5234ZM325.246 16.3633L324.254 24.3015C324.267 24.3031 324.28 24.3047 324.293 24.3063L325.246 16.3633ZM307.543 26.3828V55H323.543V26.3828H307.543ZM315.543 47H303.695V63H315.543V47ZM311.695 55V16.9609H295.695V55H311.695ZM303.695 24.9609H314.77V8.96094H303.695V24.9609ZM306.796 17.6155L307.57 27.0373L323.516 25.7283L322.743 16.3064L306.796 17.6155ZM318.794 16.5264L318.584 27.5303L334.581 27.8369L334.791 16.833L318.794 16.5264ZM327.378 19.7233C326.864 19.6719 326.196 19.6102 325.387 19.5388L323.98 35.4769C324.764 35.546 325.362 35.6015 325.786 35.6439L327.378 19.7233ZM325.387 19.5388C324.456 19.4567 323.536 19.4023 322.68 19.4023V35.4023C322.901 35.4023 323.317 35.4183 323.98 35.4769L325.387 19.5388ZM322.68 19.4023C320.697 19.4023 318.626 19.6335 316.617 20.2876L321.57 35.5015C321.565 35.5033 321.644 35.4771 321.834 35.4511C322.024 35.4251 322.301 35.4023 322.68 35.4023V19.4023ZM316.728 20.2522C314.706 20.8783 312.748 21.9334 311.08 23.542L322.186 35.0595C322.02 35.2194 321.853 35.3383 321.709 35.4206C321.569 35.501 321.475 35.5318 321.459 35.5368L316.728 20.2522ZM311.084 23.5382C309.394 25.1651 308.279 27.1166 307.618 29.1484L322.835 34.0938C322.814 34.1586 322.76 34.2997 322.648 34.4843C322.534 34.6724 322.379 34.8735 322.182 35.0633L311.084 23.5382ZM307.564 29.3223C306.99 31.2346 306.806 33.1826 306.841 35.0415L322.838 34.7397C322.827 34.1143 322.9 33.8826 322.889 33.9199L307.564 29.3223ZM319.227 28.2007L317.082 26.7944L308.308 40.1743L310.453 41.5806L319.227 28.2007ZM320.695 33.4844C320.695 31.434 320.894 29.7426 321.22 28.3606L305.647 24.6862C304.989 27.4761 304.695 30.4253 304.695 33.4844H320.695ZM321.205 28.4231C321.563 26.9563 322.008 25.9477 322.427 25.267L308.8 16.8814C307.344 19.2477 306.335 21.8719 305.662 24.6238L321.205 28.4231ZM322.455 25.2206C322.834 24.5946 323.115 24.3991 323.21 24.3408L314.837 10.7061C312.26 12.2884 310.267 14.4601 308.772 16.9278L322.455 25.2206ZM323.295 24.2873C323.311 24.2773 323.318 24.2746 323.316 24.2752C323.315 24.2759 323.314 24.2761 323.316 24.2754C323.319 24.2747 323.333 24.2707 323.363 24.2667C323.394 24.2627 323.446 24.2578 323.523 24.2578V8.25781C320.431 8.25781 317.435 9.06444 314.751 10.7595L323.295 24.2873ZM323.523 24.2578C323.789 24.2578 324.031 24.2737 324.254 24.3015L326.238 8.42506C325.336 8.31225 324.43 8.25781 323.523 8.25781V24.2578ZM324.293 24.3063C324.394 24.3184 324.45 24.329 324.469 24.3328C324.488 24.3368 324.457 24.3314 324.384 24.3083L329.202 9.05103C328.177 8.72748 327.157 8.53515 326.199 8.42027L324.293 24.3063ZM352.668 16.9609H360.668C360.668 12.5427 357.086 8.96094 352.668 8.96094V16.9609ZM352.668 25.1875V33.1875C357.086 33.1875 360.668 29.6058 360.668 25.1875H352.668ZM329.746 25.1875H321.746C321.746 29.6058 325.328 33.1875 329.746 33.1875V25.1875ZM329.746 16.9609V8.96094C325.328 8.96094 321.746 12.5427 321.746 16.9609H329.746ZM334.562 7.50391V-0.496094C330.144 -0.496094 326.562 3.08563 326.562 7.50391H334.562ZM346.41 7.50391H354.41C354.41 3.08563 350.828 -0.496094 346.41 -0.496094V7.50391ZM346.762 44.9453L339.377 48.0222C339.393 48.06 339.409 48.0976 339.425 48.1351L346.762 44.9453ZM347.957 46.1055L344.88 53.4901C345.001 53.5406 345.124 53.5881 345.247 53.6326L347.957 46.1055ZM351.965 46.3867L352.385 54.3757C352.525 54.3683 352.664 54.3574 352.802 54.3428L351.965 46.3867ZM353.23 46.2109H361.23C361.23 43.846 360.184 41.6023 358.372 40.0822C356.561 38.5622 354.169 37.9217 351.84 38.3327L353.23 46.2109ZM353.23 54.6836L355.707 62.2906C359.001 61.2181 361.23 58.1476 361.23 54.6836H353.23ZM350.066 55.4219L348.888 47.5092C348.833 47.5173 348.779 47.526 348.724 47.5353L350.066 55.4219ZM340.047 54.5078L336.78 61.8104C336.792 61.8156 336.804 61.8209 336.815 61.8261L340.047 54.5078ZM344.668 16.9609V25.1875H360.668V16.9609H344.668ZM352.668 17.1875H329.746V33.1875H352.668V17.1875ZM337.746 25.1875V16.9609H321.746V25.1875H337.746ZM329.746 24.9609H352.668V8.96094H329.746V24.9609ZM334.562 15.5039H346.41V-0.496094H334.562V15.5039ZM338.41 7.50391V42.5898H354.41V7.50391H338.41ZM338.41 42.5898C338.41 44.0526 338.556 46.0514 339.377 48.0222L354.146 41.8684C354.345 42.346 354.399 42.6795 354.41 42.7536C354.423 42.8397 354.41 42.7983 354.41 42.5898H338.41ZM339.425 48.1351C340.517 50.6462 342.487 52.4928 344.88 53.4901L351.034 38.7209C351.59 38.9524 352.219 39.3273 352.808 39.899C353.401 40.4747 353.824 41.1247 354.098 41.7555L339.425 48.1351ZM345.247 53.6326C347.041 54.2784 348.839 54.4219 350.277 54.4219V38.4219C350.079 38.4219 350.015 38.4104 350.057 38.4161C350.082 38.4195 350.147 38.4293 350.245 38.4522C350.343 38.475 350.487 38.5138 350.667 38.5784L345.247 53.6326ZM350.277 54.4219C351.033 54.4219 351.748 54.4092 352.385 54.3757L351.544 38.3978C351.291 38.4111 350.881 38.4219 350.277 38.4219V54.4219ZM352.802 54.3428C353.414 54.2784 354.021 54.1951 354.621 54.0892L351.84 38.3327C351.643 38.3674 351.407 38.4013 351.127 38.4307L352.802 54.3428ZM345.23 46.2109V54.6836H361.23V46.2109H345.23ZM350.754 47.0766C350.19 47.2601 349.571 47.4074 348.888 47.5092L351.245 63.3346C352.765 63.1082 354.255 62.7633 355.707 62.2906L350.754 47.0766ZM348.724 47.5353C348.112 47.6395 347.392 47.7031 346.551 47.7031V63.7031C348.194 63.7031 349.818 63.5792 351.409 63.3084L348.724 47.5353ZM346.551 47.7031C344.83 47.7031 343.82 47.4289 343.278 47.1895L336.815 61.8261C339.883 63.1805 343.209 63.7031 346.551 63.7031V47.7031ZM343.314 47.2053C343.171 47.1412 343.124 47.0967 343.116 47.0894C343.108 47.082 343.06 47.0388 342.985 46.9018L328.953 54.5904C330.729 57.8326 333.406 60.3008 336.78 61.8104L343.314 47.2053ZM342.985 46.9018C342.902 46.7506 342.562 45.9797 342.562 44.0664H326.562C326.562 47.6375 327.161 51.3197 328.953 54.5904L342.985 46.9018ZM342.562 44.0664V7.50391H326.562V44.0664H342.562ZM376.223 38.793V46.793C380.562 46.793 384.11 43.3335 384.22 38.9954L376.223 38.793ZM366.133 38.793H358.133C358.133 43.2112 361.715 46.793 366.133 46.793V38.793ZM366.555 33.3438L358.697 31.8415C358.691 31.8721 358.685 31.9027 358.68 31.9334L366.555 33.3438ZM371.055 25.5391L365.946 19.3826C365.901 19.4203 365.856 19.4586 365.811 19.4973L371.055 25.5391ZM375.836 14.5703L368.471 17.6947C368.498 17.7571 368.525 17.8191 368.553 17.8807L375.836 14.5703ZM374.324 12.8477L370.172 19.686C370.267 19.7434 370.363 19.7988 370.46 19.8523L374.324 12.8477ZM369.508 12.8477L365.661 5.83316C365.629 5.85104 365.596 5.86915 365.564 5.88748L369.508 12.8477ZM367.785 14.7109L374.816 18.5277C374.831 18.5002 374.846 18.4726 374.86 18.445L367.785 14.7109ZM367.047 17.9805V25.9805C371.358 25.9805 374.894 22.5646 375.042 18.2562L367.047 17.9805ZM355.129 17.9805L347.131 17.8194C347.087 19.9686 347.911 22.0448 349.415 23.5801C350.92 25.1154 352.979 25.9805 355.129 25.9805V17.9805ZM357.449 9.47266L350.836 4.97033C350.833 4.97551 350.829 4.98069 350.826 4.98587L357.449 9.47266ZM363.426 4.65625L366.433 12.0695C366.445 12.0647 366.457 12.0599 366.468 12.0551L363.426 4.65625ZM386.312 9.40234L379.541 13.6628C379.549 13.6744 379.556 13.6859 379.563 13.6973L386.312 9.40234ZM387.121 22.3047L380.011 18.6384C380.003 18.6528 379.996 18.6673 379.988 18.6818L387.121 22.3047ZM379.809 30.5312L385.091 36.539C385.142 36.4943 385.192 36.4489 385.242 36.403L379.809 30.5312ZM377.031 34.1875L384.449 37.1832C384.456 37.167 384.462 37.1507 384.469 37.1344L377.031 34.1875ZM366.52 45.2617L371.946 51.1401C371.966 51.1215 371.986 51.1028 372.006 51.084L366.52 45.2617ZM376.012 45.2617L370.525 51.084C370.545 51.1028 370.565 51.1215 370.585 51.1401L376.012 45.2617ZM376.012 53.7344L381.438 59.6128C381.458 59.5942 381.478 59.5755 381.498 59.5567L376.012 53.7344ZM366.52 53.7344L361.033 59.5567C361.053 59.5755 361.073 59.5942 361.093 59.6128L366.52 53.7344ZM376.223 30.793H366.133V46.793H376.223V30.793ZM374.133 38.793C374.133 37.0741 374.252 35.747 374.429 34.7541L358.68 31.9334C358.295 34.0811 358.133 36.3868 358.133 38.793H374.133ZM374.412 34.846C374.569 34.0276 374.802 33.452 375.04 33.0376L361.164 25.0717C359.948 27.1886 359.15 29.4724 358.697 31.8415L374.412 34.846ZM375.04 33.0376C375.268 32.6401 375.647 32.146 376.298 31.5808L365.811 19.4973C363.978 21.0884 362.388 22.938 361.164 25.0717L375.04 33.0376ZM376.163 31.6956C377.459 30.6204 378.655 29.5211 379.718 28.3953L368.086 17.4094C367.556 17.9711 366.854 18.6296 365.946 19.3826L376.163 31.6956ZM379.718 28.3953C380.963 27.0771 382.083 25.5643 382.924 23.8357L368.537 16.8362C368.534 16.8419 368.435 17.0401 368.086 17.4094L379.718 28.3953ZM382.924 23.8357C383.888 21.8549 384.363 19.7295 384.363 17.5586H368.363C368.363 17.4747 368.373 17.3552 368.405 17.214C368.437 17.0721 368.485 16.9431 368.537 16.8362L382.924 23.8357ZM384.363 17.5586C384.363 15.6571 384.102 13.4226 383.119 11.2599L368.553 17.8807C368.404 17.5518 368.361 17.3305 368.353 17.2877C368.346 17.245 368.363 17.3241 368.363 17.5586H384.363ZM383.201 11.4459C382.234 9.16844 380.569 7.15618 378.189 5.84303L370.46 19.8523C370.002 19.5998 369.568 19.2565 369.199 18.8363C368.835 18.422 368.607 18.0151 368.471 17.6947L383.201 11.4459ZM378.476 6.00936C376.234 4.64841 373.853 4.25 371.828 4.25V20.25C371.819 20.25 371.101 20.25 370.172 19.686L378.476 6.00936ZM371.828 4.25C369.649 4.25 367.554 4.79503 365.661 5.83316L373.354 19.8622C373.156 19.9712 372.911 20.0738 372.628 20.1465C372.346 20.2194 372.073 20.25 371.828 20.25V4.25ZM365.564 5.88748C363.305 7.16718 361.738 9.0286 360.71 10.9769L374.86 18.445C374.723 18.7058 374.304 19.325 373.452 19.8078L365.564 5.88748ZM360.754 10.8942C359.51 13.1869 359.123 15.6307 359.052 17.7048L375.042 18.2562C375.052 17.9732 375.078 17.8705 375.07 17.9056C375.062 17.9415 375.005 18.1794 374.816 18.5277L360.754 10.8942ZM367.047 9.98047H355.129V25.9805H367.047V9.98047ZM363.127 18.1415C363.176 15.6997 363.703 14.5048 364.073 13.9594L350.826 4.98587C348.242 8.79991 347.222 13.2768 347.131 17.8194L363.127 18.1415ZM364.062 13.975C364.668 13.0848 365.402 12.4877 366.433 12.0695L360.419 -2.75701C356.481 -1.15957 353.23 1.45426 350.836 4.97033L364.062 13.975ZM366.468 12.0551C367.884 11.4728 369.632 11.1094 371.828 11.1094V-4.89062C367.837 -4.89062 363.983 -4.22279 360.383 -2.74261L366.468 12.0551ZM371.828 11.1094C374.456 11.1094 376.271 11.5175 377.501 12.0446L383.804 -2.66175C380.112 -4.24409 376.044 -4.89062 371.828 -4.89062V11.1094ZM377.501 12.0446C378.605 12.5176 379.169 13.0708 379.541 13.6628L393.084 5.14186C390.831 1.56205 387.622 -1.0254 383.804 -2.66175L377.501 12.0446ZM379.563 13.6973C379.885 14.2028 380.281 15.1689 380.281 17.0312H396.281C396.281 12.8467 395.365 8.72691 393.062 5.10734L379.563 13.6973ZM380.281 17.0312C380.281 18.0176 380.096 18.4724 380.011 18.6384L394.232 25.971C395.693 23.137 396.281 20.0762 396.281 17.0312H380.281ZM379.988 18.6818C379.657 19.3351 379.158 20.0436 378.406 20.7963L389.719 32.11C391.545 30.2846 393.086 28.2274 394.254 25.9276L379.988 18.6818ZM378.406 20.7963C377.225 21.9764 375.884 23.2635 374.375 24.6595L385.242 36.403C386.874 34.8927 388.368 33.4611 389.719 32.11L378.406 20.7963ZM374.526 24.5235C372.537 26.2721 370.687 28.4804 369.594 31.2406L384.469 37.1344C384.411 37.2795 384.38 37.2933 384.465 37.1809C384.553 37.065 384.742 36.8463 385.091 36.539L374.526 24.5235ZM369.613 31.1918C368.648 33.5823 368.287 36.1423 368.225 38.5905L384.22 38.9954C384.235 38.3943 384.285 37.9492 384.339 37.6363C384.366 37.4824 384.393 37.3699 384.414 37.2936C384.435 37.2174 384.449 37.183 384.449 37.1832L369.613 31.1918ZM372.691 49.4805C372.691 49.6197 372.661 49.9428 372.489 50.341C372.315 50.7424 372.087 51.0095 371.946 51.1401L361.093 39.3833C358.202 42.0525 356.691 45.6044 356.691 49.4805H372.691ZM372.006 51.084C371.818 51.2616 371.578 51.4067 371.35 51.4897C371.141 51.5654 371.081 51.5391 371.266 51.5391V35.5391C367.634 35.5391 363.975 36.6675 361.033 39.4394L372.006 51.084ZM371.266 51.5391C371.45 51.5391 371.39 51.5654 371.182 51.4897C370.953 51.4067 370.714 51.2616 370.525 51.084L381.498 39.4394C378.556 36.6675 374.897 35.5391 371.266 35.5391V51.5391ZM370.585 51.1401C370.444 51.0095 370.216 50.7424 370.042 50.341C369.87 49.9428 369.84 49.6197 369.84 49.4805H385.84C385.84 45.6044 384.33 42.0525 381.438 39.3833L370.585 51.1401ZM369.84 49.4805C369.84 49.3403 369.87 49.0296 370.033 48.6509C370.196 48.2708 370.406 48.0243 370.525 47.9121L381.498 59.5567C384.335 56.8834 385.84 53.3528 385.84 49.4805H369.84ZM370.585 47.8559C370.673 47.7748 370.78 47.6932 370.901 47.6203C371.022 47.5475 371.136 47.4962 371.231 47.4623C371.425 47.3933 371.467 47.4219 371.266 47.4219V63.4219C374.852 63.4219 378.49 62.3338 381.438 59.6128L370.585 47.8559ZM371.266 47.4219C371.064 47.4219 371.106 47.3933 371.3 47.4623C371.396 47.4962 371.51 47.5475 371.63 47.6203C371.751 47.6932 371.858 47.7748 371.946 47.8559L361.093 59.6128C364.041 62.3338 367.679 63.4219 371.266 63.4219V47.4219ZM372.006 47.9121C372.125 48.0243 372.335 48.2708 372.498 48.6509C372.661 49.0296 372.691 49.3403 372.691 49.4805H356.691C356.691 53.3528 358.196 56.8834 361.033 59.5567L372.006 47.9121Z" fill="white"/>
</g>
<defs>
<filter id="filter0_d_5_24" x="0.121094" y="0.261719" width="396.16" height="63.4414" filterUnits="userSpaceOnUse" color-interpolation-filters="sRGB">
<feFlood flood-opacity="0" result="BackgroundImageFix"/>
<feColorMatrix in="SourceAlpha" type="matrix" values="0 0 0 0 0 0 0 0 0 0 0 0 0 0 0 0 0 0 127 0" result="hardAlpha"/>
<feOffset dx="4" dy="4"/>
<feGaussianBlur stdDeviation="2"/>
<feComposite in2="hardAlpha" operator="out"/>
<feColorMatrix type="matrix" values="0 0 0 0 0 0 0 0 0 0 0 0 0 0 0 0 0 0 0.39 0"/>
<feBlend mode="normal" in2="BackgroundImageFix" result="effect1_dropShadow_5_24"/>
<feBlend mode="normal" in="SourceGraphic" in2="effect1_dropShadow_5_24" result="shape"/>
</filter>
</defs>
</svg>
